<svg width="40" height="40" viewBox="0 0 40 40" fill="none" xmlns="http://www.w3.org/2000/svg">
<path d="M16.6666 10L16.6663 8.334C16.6659 6.49279 18.1584 5 19.9996 5V5C21.8403 5 23.3326 6.49198 23.333 8.33267L23.3333 10M23.3323 30.8333H29.0555C31.7111 30.8333 33.1388 27.7137 31.403 25.7039L30.216 24.3296C28.7476 22.6296 28.0426 20.4006 28.2662 18.1654V18.1654C28.7483 13.3475 24.9649 9.16667 20.123 9.16667H19.8773C15.0349 9.16667 11.2511 13.3475 11.7327 18.1658V18.1658C11.9561 20.4009 11.2511 22.6295 9.78306 24.3295L8.59648 25.7036C6.86071 27.7136 8.28863 30.8333 10.9444 30.8333H16.6656M23.3323 30.8333V31.6667C23.3323 33.5076 21.8399 35 19.999 35V35C18.158 35 16.6656 33.5076 16.6656 31.6667V30.8333M23.3323 30.8333H16.6656" stroke="#336699" stroke-width="1.5" stroke-linejoin="round"/>
</svg>
