<svg width="837" height="451" viewBox="0 0 837 451" fill="none" xmlns="http://www.w3.org/2000/svg">
<rect width="837" height="451" fill="white"/>
<rect x="185" y="95" width="469" height="40" rx="20" fill="#336699"/>
<path d="M212.759 36.752H202.455V42.884H210.183V45.236H202.455V51.648H212.759V54H199.655V34.4H212.759V36.752ZM216.44 40H218.848L219.016 41.624C219.464 41.0453 220.033 40.5973 220.724 40.28C221.414 39.9627 222.18 39.804 223.02 39.804C224.102 39.804 225.036 40.0373 225.82 40.504C226.622 40.952 227.238 41.624 227.668 42.52C228.116 43.416 228.34 44.536 228.34 45.88V54H225.708V46.216C225.708 44.9093 225.428 43.92 224.868 43.248C224.326 42.5573 223.533 42.212 222.488 42.212C221.405 42.212 220.565 42.5667 219.968 43.276C219.37 43.9667 219.072 44.9933 219.072 46.356V54H216.44V40ZM238.211 54.196C236.867 54.196 235.672 53.888 234.627 53.272C233.6 52.6373 232.788 51.7693 232.191 50.668C231.612 49.5667 231.323 48.3067 231.323 46.888C231.323 45.5253 231.612 44.312 232.191 43.248C232.77 42.184 233.563 41.344 234.571 40.728C235.598 40.112 236.755 39.804 238.043 39.804C239.35 39.804 240.507 40.0933 241.515 40.672C242.523 41.232 243.307 42.0253 243.867 43.052C244.427 44.06 244.698 45.2267 244.679 46.552C244.679 46.776 244.67 47.0093 244.651 47.252C244.632 47.476 244.604 47.728 244.567 48.008H234.207C234.263 48.7547 234.468 49.4173 234.823 49.996C235.196 50.556 235.663 50.9947 236.223 51.312C236.802 51.6293 237.455 51.788 238.183 51.788C239.116 51.788 239.928 51.6107 240.619 51.256C241.31 50.8827 241.795 50.388 242.075 49.772L244.371 50.584C243.811 51.7227 242.99 52.6093 241.907 53.244C240.843 53.8787 239.611 54.196 238.211 54.196ZM241.795 45.74C241.795 45.068 241.627 44.4613 241.291 43.92C240.955 43.3787 240.498 42.9587 239.919 42.66C239.359 42.3427 238.724 42.184 238.015 42.184C237.38 42.184 236.792 42.3427 236.251 42.66C235.728 42.9587 235.28 43.3787 234.907 43.92C234.552 44.4427 234.328 45.0493 234.235 45.74H241.795ZM247.912 40H250.32L250.488 41.876C250.88 41.3907 251.328 40.9893 251.832 40.672C252.355 40.336 252.915 40.1027 253.512 39.972C254.128 39.8413 254.763 39.8507 255.416 40V42.492C254.8 42.3427 254.203 42.324 253.624 42.436C253.046 42.548 252.523 42.7907 252.056 43.164C251.608 43.5187 251.244 43.9947 250.964 44.592C250.684 45.1893 250.544 45.908 250.544 46.748V54H247.912V40ZM264.216 54.196C262.891 54.196 261.696 53.9067 260.632 53.328C259.587 52.7307 258.766 51.9 258.168 50.836C257.571 49.7533 257.272 48.484 257.272 47.028C257.272 45.5533 257.58 44.2747 258.196 43.192C258.812 42.1093 259.652 41.2787 260.716 40.7C261.78 40.1027 262.975 39.804 264.3 39.804C265.626 39.804 266.82 40.1027 267.884 40.7C268.967 41.2787 269.816 42.1093 270.432 43.192C271.048 44.256 271.356 45.516 271.356 46.972C271.356 48.4467 271.039 49.7253 270.404 50.808C269.788 51.8907 268.939 52.7307 267.856 53.328C266.774 53.9067 265.56 54.196 264.216 54.196ZM264.188 51.788C264.935 51.788 265.635 51.62 266.288 51.284C266.942 50.9293 267.474 50.3973 267.884 49.688C268.314 48.9787 268.528 48.0733 268.528 46.972C268.528 45.8893 268.323 45.0027 267.912 44.312C267.52 43.6027 266.998 43.08 266.344 42.744C265.691 42.3893 264.991 42.212 264.244 42.212C263.516 42.212 262.835 42.3893 262.2 42.744C261.584 43.08 261.08 43.6027 260.688 44.312C260.296 45.0213 260.1 45.9267 260.1 47.028C260.1 48.1107 260.287 49.0067 260.66 49.716C261.052 50.4067 261.556 50.9293 262.172 51.284C262.788 51.62 263.46 51.788 264.188 51.788Z" fill="black"/>
<path d="M306.421 34.4H319.525V36.752H309.221V42.884H316.949V45.236H309.221V54H306.421V34.4ZM328.707 54.196C327.363 54.196 326.169 53.888 325.123 53.272C324.097 52.6373 323.285 51.7693 322.687 50.668C322.109 49.5667 321.819 48.3067 321.819 46.888C321.819 45.5253 322.109 44.312 322.687 43.248C323.266 42.184 324.059 41.344 325.067 40.728C326.094 40.112 327.251 39.804 328.539 39.804C329.846 39.804 331.003 40.0933 332.011 40.672C333.019 41.232 333.803 42.0253 334.363 43.052C334.923 44.06 335.194 45.2267 335.175 46.552C335.175 46.776 335.166 47.0093 335.147 47.252C335.129 47.476 335.101 47.728 335.063 48.008H324.703C324.759 48.7547 324.965 49.4173 325.319 49.996C325.693 50.556 326.159 50.9947 326.719 51.312C327.298 51.6293 327.951 51.788 328.679 51.788C329.613 51.788 330.425 51.6107 331.115 51.256C331.806 50.8827 332.291 50.388 332.571 49.772L334.867 50.584C334.307 51.7227 333.486 52.6093 332.403 53.244C331.339 53.8787 330.107 54.196 328.707 54.196ZM332.291 45.74C332.291 45.068 332.123 44.4613 331.787 43.92C331.451 43.3787 330.994 42.9587 330.415 42.66C329.855 42.3427 329.221 42.184 328.511 42.184C327.877 42.184 327.289 42.3427 326.747 42.66C326.225 42.9587 325.777 43.3787 325.403 43.92C325.049 44.4427 324.825 45.0493 324.731 45.74H332.291ZM340.761 42.38C341.19 41.652 341.825 41.0453 342.665 40.56C343.523 40.056 344.559 39.804 345.773 39.804C347.042 39.804 348.153 40.1027 349.105 40.7C350.057 41.2973 350.794 42.1373 351.317 43.22C351.858 44.3027 352.129 45.5627 352.129 47C352.129 48.4373 351.858 49.6973 351.317 50.78C350.775 51.8627 350.029 52.7027 349.077 53.3C348.125 53.8973 347.023 54.196 345.773 54.196C344.634 54.196 343.663 53.972 342.861 53.524C342.077 53.076 341.461 52.5347 341.013 51.9L340.817 54H338.409V33.84H341.041V42.464L340.761 42.38ZM349.273 47C349.273 45.5627 348.89 44.4053 348.125 43.528C347.378 42.6507 346.398 42.212 345.185 42.212C344.401 42.212 343.701 42.408 343.085 42.8C342.469 43.1733 341.974 43.7147 341.601 44.424C341.227 45.1333 341.041 45.992 341.041 47C341.041 48.008 341.227 48.876 341.601 49.604C341.974 50.3133 342.469 50.8547 343.085 51.228C343.701 51.6013 344.401 51.788 345.185 51.788C346.398 51.788 347.378 51.3493 348.125 50.472C348.89 49.5947 349.273 48.4373 349.273 47ZM355.198 40H357.606L357.774 41.876C358.166 41.3907 358.614 40.9893 359.118 40.672C359.64 40.336 360.2 40.1027 360.798 39.972C361.414 39.8413 362.048 39.8507 362.702 40V42.492C362.086 42.3427 361.488 42.324 360.91 42.436C360.331 42.548 359.808 42.7907 359.342 43.164C358.894 43.5187 358.53 43.9947 358.25 44.592C357.97 45.1893 357.83 45.908 357.83 46.748V54H355.198V40ZM371.446 54.196C370.102 54.196 368.907 53.888 367.862 53.272C366.835 52.6373 366.023 51.7693 365.426 50.668C364.847 49.5667 364.558 48.3067 364.558 46.888C364.558 45.5253 364.847 44.312 365.426 43.248C366.004 42.184 366.798 41.344 367.806 40.728C368.832 40.112 369.99 39.804 371.278 39.804C372.584 39.804 373.742 40.0933 374.75 40.672C375.758 41.232 376.542 42.0253 377.102 43.052C377.662 44.06 377.932 45.2267 377.914 46.552C377.914 46.776 377.904 47.0093 377.886 47.252C377.867 47.476 377.839 47.728 377.802 48.008H367.442C367.498 48.7547 367.703 49.4173 368.058 49.996C368.431 50.556 368.898 50.9947 369.458 51.312C370.036 51.6293 370.69 51.788 371.418 51.788C372.351 51.788 373.163 51.6107 373.854 51.256C374.544 50.8827 375.03 50.388 375.31 49.772L377.606 50.584C377.046 51.7227 376.224 52.6093 375.142 53.244C374.078 53.8787 372.846 54.196 371.446 54.196ZM375.03 45.74C375.03 45.068 374.862 44.4613 374.526 43.92C374.19 43.3787 373.732 42.9587 373.154 42.66C372.594 42.3427 371.959 42.184 371.25 42.184C370.615 42.184 370.027 42.3427 369.486 42.66C368.963 42.9587 368.515 43.3787 368.142 43.92C367.787 44.4427 367.563 45.0493 367.47 45.74H375.03ZM381.147 40H383.555L383.723 41.876C384.115 41.3907 384.563 40.9893 385.067 40.672C385.59 40.336 386.15 40.1027 386.747 39.972C387.363 39.8413 387.998 39.8507 388.651 40V42.492C388.035 42.3427 387.438 42.324 386.859 42.436C386.28 42.548 385.758 42.7907 385.291 43.164C384.843 43.5187 384.479 43.9947 384.199 44.592C383.919 45.1893 383.779 45.908 383.779 46.748V54H381.147V40ZM397.451 54.196C396.125 54.196 394.931 53.9067 393.867 53.328C392.821 52.7307 392 51.9 391.403 50.836C390.805 49.7533 390.507 48.484 390.507 47.028C390.507 45.5533 390.815 44.2747 391.431 43.192C392.047 42.1093 392.887 41.2787 393.951 40.7C395.015 40.1027 396.209 39.804 397.535 39.804C398.86 39.804 400.055 40.1027 401.119 40.7C402.201 41.2787 403.051 42.1093 403.667 43.192C404.283 44.256 404.591 45.516 404.591 46.972C404.591 48.4467 404.273 49.7253 403.639 50.808C403.023 51.8907 402.173 52.7307 401.091 53.328C400.008 53.9067 398.795 54.196 397.451 54.196ZM397.423 51.788C398.169 51.788 398.869 51.62 399.523 51.284C400.176 50.9293 400.708 50.3973 401.119 49.688C401.548 48.9787 401.763 48.0733 401.763 46.972C401.763 45.8893 401.557 45.0027 401.147 44.312C400.755 43.6027 400.232 43.08 399.579 42.744C398.925 42.3893 398.225 42.212 397.479 42.212C396.751 42.212 396.069 42.3893 395.435 42.744C394.819 43.08 394.315 43.6027 393.923 44.312C393.531 45.0213 393.335 45.9267 393.335 47.028C393.335 48.1107 393.521 49.0067 393.895 49.716C394.287 50.4067 394.791 50.9293 395.407 51.284C396.023 51.62 396.695 51.788 397.423 51.788Z" fill="black"/>
<path d="M442.377 54H439.577V34.4H442.657L449.629 50.276L456.573 34.4H459.625V54H456.853V39.832L450.637 54H448.593L442.377 39.832V54ZM472.394 54L472.17 51.956C471.741 52.6653 471.181 53.216 470.49 53.608C469.818 53.9813 468.941 54.168 467.858 54.168C466.85 54.168 465.991 54.0093 465.282 53.692C464.573 53.356 464.022 52.8987 463.63 52.32C463.257 51.7227 463.07 51.032 463.07 50.248C463.07 49.072 463.509 48.1013 464.386 47.336C465.263 46.552 466.533 46.0667 468.194 45.88L472.17 45.432V44.34C472.17 43.7427 471.927 43.2387 471.442 42.828C470.957 42.3987 470.257 42.184 469.342 42.184C468.483 42.184 467.755 42.3893 467.158 42.8C466.561 43.192 466.159 43.78 465.954 44.564L463.602 43.724C463.957 42.492 464.647 41.5307 465.674 40.84C466.719 40.1493 467.979 39.804 469.454 39.804C471.209 39.804 472.543 40.2427 473.458 41.12C474.373 41.9973 474.83 43.1547 474.83 44.592V54H472.394ZM472.17 47.588L468.334 48.064C467.513 48.176 466.897 48.4093 466.486 48.764C466.075 49.1 465.87 49.548 465.87 50.108C465.87 50.6307 466.066 51.0693 466.458 51.424C466.869 51.76 467.438 51.928 468.166 51.928C469.062 51.928 469.809 51.76 470.406 51.424C471.003 51.088 471.442 50.6213 471.722 50.024C472.021 49.408 472.17 48.6987 472.17 47.896V47.588ZM478.62 40H481.028L481.196 41.876C481.588 41.3907 482.036 40.9893 482.54 40.672C483.062 40.336 483.622 40.1027 484.22 39.972C484.836 39.8413 485.47 39.8507 486.124 40V42.492C485.508 42.3427 484.91 42.324 484.332 42.436C483.753 42.548 483.23 42.7907 482.764 43.164C482.316 43.5187 481.952 43.9947 481.672 44.592C481.392 45.1893 481.252 45.908 481.252 46.748V54H478.62V40ZM498.815 42.156L491.395 51.648H498.843V54H488.091V51.844L495.539 42.352H488.119V40H498.815V42.156ZM508.294 54.196C506.969 54.196 505.774 53.9067 504.71 53.328C503.665 52.7307 502.844 51.9 502.246 50.836C501.649 49.7533 501.35 48.484 501.35 47.028C501.35 45.5533 501.658 44.2747 502.274 43.192C502.89 42.1093 503.73 41.2787 504.794 40.7C505.858 40.1027 507.053 39.804 508.378 39.804C509.704 39.804 510.898 40.1027 511.962 40.7C513.045 41.2787 513.894 42.1093 514.51 43.192C515.126 44.256 515.434 45.516 515.434 46.972C515.434 48.4467 515.117 49.7253 514.482 50.808C513.866 51.8907 513.017 52.7307 511.934 53.328C510.852 53.9067 509.638 54.196 508.294 54.196ZM508.266 51.788C509.013 51.788 509.713 51.62 510.366 51.284C511.02 50.9293 511.552 50.3973 511.962 49.688C512.392 48.9787 512.606 48.0733 512.606 46.972C512.606 45.8893 512.401 45.0027 511.99 44.312C511.598 43.6027 511.076 43.08 510.422 42.744C509.769 42.3893 509.069 42.212 508.322 42.212C507.594 42.212 506.913 42.3893 506.278 42.744C505.662 43.08 505.158 43.6027 504.766 44.312C504.374 45.0213 504.178 45.9267 504.178 47.028C504.178 48.1107 504.365 49.0067 504.738 49.716C505.13 50.4067 505.634 50.9293 506.25 51.284C506.866 51.62 507.538 51.788 508.266 51.788Z" fill="black"/>
<path d="M558.478 36.752H557.498L551.338 54H548.482L555.538 34.4H560.382L567.438 54H564.582L558.478 36.752ZM552.094 46.664H563.518V49.016H552.094V46.664ZM572.013 42.38C572.442 41.652 573.077 41.0453 573.917 40.56C574.775 40.056 575.811 39.804 577.025 39.804C578.294 39.804 579.405 40.1027 580.357 40.7C581.309 41.2973 582.046 42.1373 582.569 43.22C583.11 44.3027 583.381 45.5627 583.381 47C583.381 48.4373 583.11 49.6973 582.569 50.78C582.027 51.8627 581.281 52.7027 580.329 53.3C579.377 53.8973 578.275 54.196 577.025 54.196C575.886 54.196 574.915 53.972 574.113 53.524C573.329 53.076 572.713 52.5347 572.265 51.9L572.069 54H569.661V33.84H572.293V42.464L572.013 42.38ZM580.525 47C580.525 45.5627 580.142 44.4053 579.377 43.528C578.63 42.6507 577.65 42.212 576.437 42.212C575.653 42.212 574.953 42.408 574.337 42.8C573.721 43.1733 573.226 43.7147 572.853 44.424C572.479 45.1333 572.293 45.992 572.293 47C572.293 48.008 572.479 48.876 572.853 49.604C573.226 50.3133 573.721 50.8547 574.337 51.228C574.953 51.6013 575.653 51.788 576.437 51.788C577.65 51.788 578.63 51.3493 579.377 50.472C580.142 49.5947 580.525 48.4373 580.525 47ZM586.45 40H588.858L589.026 41.876C589.418 41.3907 589.866 40.9893 590.37 40.672C590.892 40.336 591.452 40.1027 592.05 39.972C592.666 39.8413 593.3 39.8507 593.954 40V42.492C593.338 42.3427 592.74 42.324 592.162 42.436C591.583 42.548 591.06 42.7907 590.594 43.164C590.146 43.5187 589.782 43.9947 589.502 44.592C589.222 45.1893 589.082 45.908 589.082 46.748V54H586.45V40ZM597.041 40H599.701V54H597.041V40ZM598.385 37.536C597.881 37.536 597.461 37.368 597.125 37.032C596.789 36.696 596.621 36.2853 596.621 35.8C596.621 35.296 596.789 34.876 597.125 34.54C597.461 34.1853 597.881 34.008 598.385 34.008C598.871 34.008 599.281 34.1853 599.617 34.54C599.972 34.876 600.149 35.296 600.149 35.8C600.149 36.2853 599.972 36.696 599.617 37.032C599.281 37.368 598.871 37.536 598.385 37.536ZM604.114 33.84H606.746V54H604.114V33.84Z" fill="black"/>
<path d="M645.239 54H642.439V34.4H645.519L652.491 50.276L659.435 34.4H662.487V54H659.715V39.832L653.499 54H651.455L645.239 39.832V54ZM675.255 54L675.031 51.956C674.602 52.6653 674.042 53.216 673.351 53.608C672.679 53.9813 671.802 54.168 670.719 54.168C669.711 54.168 668.853 54.0093 668.143 53.692C667.434 53.356 666.883 52.8987 666.491 52.32C666.118 51.7227 665.931 51.032 665.931 50.248C665.931 49.072 666.37 48.1013 667.247 47.336C668.125 46.552 669.394 46.0667 671.055 45.88L675.031 45.432V44.34C675.031 43.7427 674.789 43.2387 674.303 42.828C673.818 42.3987 673.118 42.184 672.203 42.184C671.345 42.184 670.617 42.3893 670.019 42.8C669.422 43.192 669.021 43.78 668.815 44.564L666.463 43.724C666.818 42.492 667.509 41.5307 668.535 40.84C669.581 40.1493 670.841 39.804 672.315 39.804C674.07 39.804 675.405 40.2427 676.319 41.12C677.234 41.9973 677.691 43.1547 677.691 44.592V54H675.255ZM675.031 47.588L671.195 48.064C670.374 48.176 669.758 48.4093 669.347 48.764C668.937 49.1 668.731 49.548 668.731 50.108C668.731 50.6307 668.927 51.0693 669.319 51.424C669.73 51.76 670.299 51.928 671.027 51.928C671.923 51.928 672.67 51.76 673.267 51.424C673.865 51.088 674.303 50.6213 674.583 50.024C674.882 49.408 675.031 48.6987 675.031 47.896V47.588ZM691.029 40H693.773L685.653 59.6H683.049L685.513 53.72L679.969 40H682.881L686.941 50.612L691.029 40ZM702.433 54.196C701.108 54.196 699.913 53.9067 698.849 53.328C697.804 52.7307 696.982 51.9 696.385 50.836C695.788 49.7533 695.489 48.484 695.489 47.028C695.489 45.5533 695.797 44.2747 696.413 43.192C697.029 42.1093 697.869 41.2787 698.933 40.7C699.997 40.1027 701.192 39.804 702.517 39.804C703.842 39.804 705.037 40.1027 706.101 40.7C707.184 41.2787 708.033 42.1093 708.649 43.192C709.265 44.256 709.573 45.516 709.573 46.972C709.573 48.4467 709.256 49.7253 708.621 50.808C708.005 51.8907 707.156 52.7307 706.073 53.328C704.99 53.9067 703.777 54.196 702.433 54.196ZM702.405 51.788C703.152 51.788 703.852 51.62 704.505 51.284C705.158 50.9293 705.69 50.3973 706.101 49.688C706.53 48.9787 706.745 48.0733 706.745 46.972C706.745 45.8893 706.54 45.0027 706.129 44.312C705.737 43.6027 705.214 43.08 704.561 42.744C703.908 42.3893 703.208 42.212 702.461 42.212C701.733 42.212 701.052 42.3893 700.417 42.744C699.801 43.08 699.297 43.6027 698.905 44.312C698.513 45.0213 698.317 45.9267 698.317 47.028C698.317 48.1107 698.504 49.0067 698.877 49.716C699.269 50.4067 699.773 50.9293 700.389 51.284C701.005 51.62 701.677 51.788 702.405 51.788Z" fill="black"/>
<path d="M751.644 34.4H754.444V48.596C754.444 49.716 754.201 50.696 753.716 51.536C753.23 52.376 752.568 53.0293 751.728 53.496C750.888 53.9627 749.917 54.196 748.816 54.196C747.453 54.196 746.324 53.8693 745.428 53.216C744.532 52.544 743.916 51.6107 743.58 50.416L745.96 49.604C746.09 50.0333 746.277 50.416 746.52 50.752C746.762 51.088 747.07 51.3587 747.444 51.564C747.836 51.7507 748.293 51.844 748.816 51.844C749.45 51.844 749.973 51.6947 750.384 51.396C750.794 51.0973 751.102 50.7147 751.308 50.248C751.532 49.7627 751.644 49.2493 751.644 48.708V34.4ZM770.253 54H767.845L767.649 52.348C767.201 52.9453 766.632 53.4027 765.941 53.72C765.269 54.0373 764.513 54.196 763.673 54.196C762.591 54.196 761.648 53.972 760.845 53.524C760.043 53.0573 759.417 52.3853 758.969 51.508C758.54 50.612 758.325 49.5013 758.325 48.176V40H760.985V47.84C760.985 49.128 761.247 50.108 761.769 50.78C762.311 51.452 763.123 51.788 764.205 51.788C765.269 51.788 766.1 51.4427 766.697 50.752C767.313 50.0613 767.621 49.0347 767.621 47.672V40H770.253V54ZM774.245 40H776.653L776.821 41.624C777.269 41.0453 777.838 40.5973 778.529 40.28C779.219 39.9627 779.985 39.804 780.825 39.804C781.907 39.804 782.841 40.0373 783.625 40.504C784.427 40.952 785.043 41.624 785.473 42.52C785.921 43.416 786.145 44.536 786.145 45.88V54H783.513V46.216C783.513 44.9093 783.233 43.92 782.673 43.248C782.131 42.5573 781.338 42.212 780.293 42.212C779.21 42.212 778.37 42.5667 777.773 43.276C777.175 43.9667 776.877 44.9933 776.877 46.356V54H774.245V40ZM790.36 40H793.02V54H790.36V40ZM791.704 37.536C791.2 37.536 790.78 37.368 790.444 37.032C790.108 36.696 789.94 36.2853 789.94 35.8C789.94 35.296 790.108 34.876 790.444 34.54C790.78 34.1853 791.2 34.008 791.704 34.008C792.189 34.008 792.6 34.1853 792.936 34.54C793.29 34.876 793.468 35.296 793.468 35.8C793.468 36.2853 793.29 36.696 792.936 37.032C792.6 37.368 792.189 37.536 791.704 37.536ZM803.564 54.196C802.239 54.196 801.044 53.9067 799.98 53.328C798.935 52.7307 798.113 51.9 797.516 50.836C796.919 49.7533 796.62 48.484 796.62 47.028C796.62 45.5533 796.928 44.2747 797.544 43.192C798.16 42.1093 799 41.2787 800.064 40.7C801.128 40.1027 802.323 39.804 803.648 39.804C804.973 39.804 806.168 40.1027 807.232 40.7C808.315 41.2787 809.164 42.1093 809.78 43.192C810.396 44.256 810.704 45.516 810.704 46.972C810.704 48.4467 810.387 49.7253 809.752 50.808C809.136 51.8907 808.287 52.7307 807.204 53.328C806.121 53.9067 804.908 54.196 803.564 54.196ZM803.536 51.788C804.283 51.788 804.983 51.62 805.636 51.284C806.289 50.9293 806.821 50.3973 807.232 49.688C807.661 48.9787 807.876 48.0733 807.876 46.972C807.876 45.8893 807.671 45.0027 807.26 44.312C806.868 43.6027 806.345 43.08 805.692 42.744C805.039 42.3893 804.339 42.212 803.592 42.212C802.864 42.212 802.183 42.3893 801.548 42.744C800.932 43.08 800.428 43.6027 800.036 44.312C799.644 45.0213 799.448 45.9267 799.448 47.028C799.448 48.1107 799.635 49.0067 800.008 49.716C800.4 50.4067 800.904 50.9293 801.52 51.284C802.136 51.62 802.808 51.788 803.536 51.788Z" fill="black"/>
<rect x="185" y="186" width="161" height="40" rx="20" fill="#E09F7D"/>
<rect x="185" y="278" width="609" height="40" rx="20" fill="#2F4858"/>
<rect x="185" y="376" width="293" height="40" rx="20" fill="#82D173"/>
<path d="M77.4266 103.4H92.4626V105.752H86.3586V123H83.5586V105.752H77.4266V103.4ZM104.117 123L103.893 120.956C103.463 121.665 102.903 122.216 102.213 122.608C101.541 122.981 100.663 123.168 99.5805 123.168C98.5725 123.168 97.7139 123.009 97.0045 122.692C96.2952 122.356 95.7445 121.899 95.3525 121.32C94.9792 120.723 94.7925 120.032 94.7925 119.248C94.7925 118.072 95.2312 117.101 96.1085 116.336C96.9859 115.552 98.2552 115.067 99.9165 114.88L103.893 114.432V113.34C103.893 112.743 103.65 112.239 103.165 111.828C102.679 111.399 101.979 111.184 101.065 111.184C100.206 111.184 99.4779 111.389 98.8805 111.8C98.2832 112.192 97.8819 112.78 97.6765 113.564L95.3245 112.724C95.6792 111.492 96.3699 110.531 97.3965 109.84C98.4419 109.149 99.7019 108.804 101.177 108.804C102.931 108.804 104.266 109.243 105.181 110.12C106.095 110.997 106.553 112.155 106.553 113.592V123H104.117ZM103.893 116.588L100.057 117.064C99.2352 117.176 98.6192 117.409 98.2085 117.764C97.7979 118.1 97.5925 118.548 97.5925 119.108C97.5925 119.631 97.7885 120.069 98.1805 120.424C98.5912 120.76 99.1605 120.928 99.8885 120.928C100.785 120.928 101.531 120.76 102.129 120.424C102.726 120.088 103.165 119.621 103.445 119.024C103.743 118.408 103.893 117.699 103.893 116.896V116.588ZM110.342 109H112.75L112.918 110.876C113.31 110.391 113.758 109.989 114.262 109.672C114.785 109.336 115.345 109.103 115.942 108.972C116.558 108.841 117.193 108.851 117.846 109V111.492C117.23 111.343 116.633 111.324 116.054 111.436C115.476 111.548 114.953 111.791 114.486 112.164C114.038 112.519 113.674 112.995 113.394 113.592C113.114 114.189 112.974 114.908 112.974 115.748V123H110.342V109ZM126.59 123.196C125.246 123.196 124.051 122.888 123.006 122.272C121.979 121.637 121.167 120.769 120.57 119.668C119.991 118.567 119.702 117.307 119.702 115.888C119.702 114.525 119.991 113.312 120.57 112.248C121.149 111.184 121.942 110.344 122.95 109.728C123.977 109.112 125.134 108.804 126.422 108.804C127.729 108.804 128.886 109.093 129.894 109.672C130.902 110.232 131.686 111.025 132.246 112.052C132.806 113.06 133.077 114.227 133.058 115.552C133.058 115.776 133.049 116.009 133.03 116.252C133.011 116.476 132.983 116.728 132.946 117.008H122.586C122.642 117.755 122.847 118.417 123.202 118.996C123.575 119.556 124.042 119.995 124.602 120.312C125.181 120.629 125.834 120.788 126.562 120.788C127.495 120.788 128.307 120.611 128.998 120.256C129.689 119.883 130.174 119.388 130.454 118.772L132.75 119.584C132.19 120.723 131.369 121.609 130.286 122.244C129.222 122.879 127.99 123.196 126.59 123.196ZM130.174 114.74C130.174 114.068 130.006 113.461 129.67 112.92C129.334 112.379 128.877 111.959 128.298 111.66C127.738 111.343 127.103 111.184 126.394 111.184C125.759 111.184 125.171 111.343 124.63 111.66C124.107 111.959 123.659 112.379 123.286 112.92C122.931 113.443 122.707 114.049 122.614 114.74H130.174ZM144.831 123L144.607 120.956C144.178 121.665 143.618 122.216 142.927 122.608C142.255 122.981 141.378 123.168 140.295 123.168C139.287 123.168 138.429 123.009 137.719 122.692C137.01 122.356 136.459 121.899 136.067 121.32C135.694 120.723 135.507 120.032 135.507 119.248C135.507 118.072 135.946 117.101 136.823 116.336C137.701 115.552 138.97 115.067 140.631 114.88L144.607 114.432V113.34C144.607 112.743 144.365 112.239 143.879 111.828C143.394 111.399 142.694 111.184 141.779 111.184C140.921 111.184 140.193 111.389 139.595 111.8C138.998 112.192 138.597 112.78 138.391 113.564L136.039 112.724C136.394 111.492 137.085 110.531 138.111 109.84C139.157 109.149 140.417 108.804 141.891 108.804C143.646 108.804 144.981 109.243 145.895 110.12C146.81 110.997 147.267 112.155 147.267 113.592V123H144.831ZM144.607 116.588L140.771 117.064C139.95 117.176 139.334 117.409 138.923 117.764C138.513 118.1 138.307 118.548 138.307 119.108C138.307 119.631 138.503 120.069 138.895 120.424C139.306 120.76 139.875 120.928 140.603 120.928C141.499 120.928 142.246 120.76 142.843 120.424C143.441 120.088 143.879 119.621 144.159 119.024C144.458 118.408 144.607 117.699 144.607 116.896V116.588ZM160.669 105.752H158.009V103.4H163.469V123H160.669V105.752Z" fill="black"/>
<circle cx="37" cy="110" r="20" fill="#336699"/>
<circle cx="37" cy="105" r="10" fill="black"/>
<path d="M51.5 124C48.5 126.5 45.2872 130 37.0029 130C28.5 130 23 124.5 22.5029 123.754C22.5029 117.126 28.7187 116.754 37.0029 116.754C45.2872 116.754 51.5 117.373 51.5 124Z" fill="black"/>
<path d="M77.4266 193.4H92.4626V195.752H86.3586V213H83.5586V195.752H77.4266V193.4ZM104.117 213L103.893 210.956C103.463 211.665 102.903 212.216 102.213 212.608C101.541 212.981 100.663 213.168 99.5805 213.168C98.5725 213.168 97.7139 213.009 97.0045 212.692C96.2952 212.356 95.7445 211.899 95.3525 211.32C94.9792 210.723 94.7925 210.032 94.7925 209.248C94.7925 208.072 95.2312 207.101 96.1085 206.336C96.9859 205.552 98.2552 205.067 99.9165 204.88L103.893 204.432V203.34C103.893 202.743 103.65 202.239 103.165 201.828C102.679 201.399 101.979 201.184 101.065 201.184C100.206 201.184 99.4779 201.389 98.8805 201.8C98.2832 202.192 97.8819 202.78 97.6765 203.564L95.3245 202.724C95.6792 201.492 96.3699 200.531 97.3965 199.84C98.4419 199.149 99.7019 198.804 101.177 198.804C102.931 198.804 104.266 199.243 105.181 200.12C106.095 200.997 106.553 202.155 106.553 203.592V213H104.117ZM103.893 206.588L100.057 207.064C99.2352 207.176 98.6192 207.409 98.2085 207.764C97.7979 208.1 97.5925 208.548 97.5925 209.108C97.5925 209.631 97.7885 210.069 98.1805 210.424C98.5912 210.76 99.1605 210.928 99.8885 210.928C100.785 210.928 101.531 210.76 102.129 210.424C102.726 210.088 103.165 209.621 103.445 209.024C103.743 208.408 103.893 207.699 103.893 206.896V206.588ZM110.342 199H112.75L112.918 200.876C113.31 200.391 113.758 199.989 114.262 199.672C114.785 199.336 115.345 199.103 115.942 198.972C116.558 198.841 117.193 198.851 117.846 199V201.492C117.23 201.343 116.633 201.324 116.054 201.436C115.476 201.548 114.953 201.791 114.486 202.164C114.038 202.519 113.674 202.995 113.394 203.592C113.114 204.189 112.974 204.908 112.974 205.748V213H110.342V199ZM126.59 213.196C125.246 213.196 124.051 212.888 123.006 212.272C121.979 211.637 121.167 210.769 120.57 209.668C119.991 208.567 119.702 207.307 119.702 205.888C119.702 204.525 119.991 203.312 120.57 202.248C121.149 201.184 121.942 200.344 122.95 199.728C123.977 199.112 125.134 198.804 126.422 198.804C127.729 198.804 128.886 199.093 129.894 199.672C130.902 200.232 131.686 201.025 132.246 202.052C132.806 203.06 133.077 204.227 133.058 205.552C133.058 205.776 133.049 206.009 133.03 206.252C133.011 206.476 132.983 206.728 132.946 207.008H122.586C122.642 207.755 122.847 208.417 123.202 208.996C123.575 209.556 124.042 209.995 124.602 210.312C125.181 210.629 125.834 210.788 126.562 210.788C127.495 210.788 128.307 210.611 128.998 210.256C129.689 209.883 130.174 209.388 130.454 208.772L132.75 209.584C132.19 210.723 131.369 211.609 130.286 212.244C129.222 212.879 127.99 213.196 126.59 213.196ZM130.174 204.74C130.174 204.068 130.006 203.461 129.67 202.92C129.334 202.379 128.877 201.959 128.298 201.66C127.738 201.343 127.103 201.184 126.394 201.184C125.759 201.184 125.171 201.343 124.63 201.66C124.107 201.959 123.659 202.379 123.286 202.92C122.931 203.443 122.707 204.049 122.614 204.74H130.174ZM144.831 213L144.607 210.956C144.178 211.665 143.618 212.216 142.927 212.608C142.255 212.981 141.378 213.168 140.295 213.168C139.287 213.168 138.429 213.009 137.719 212.692C137.01 212.356 136.459 211.899 136.067 211.32C135.694 210.723 135.507 210.032 135.507 209.248C135.507 208.072 135.946 207.101 136.823 206.336C137.701 205.552 138.97 205.067 140.631 204.88L144.607 204.432V203.34C144.607 202.743 144.365 202.239 143.879 201.828C143.394 201.399 142.694 201.184 141.779 201.184C140.921 201.184 140.193 201.389 139.595 201.8C138.998 202.192 138.597 202.78 138.391 203.564L136.039 202.724C136.394 201.492 137.085 200.531 138.111 199.84C139.157 199.149 140.417 198.804 141.891 198.804C143.646 198.804 144.981 199.243 145.895 200.12C146.81 200.997 147.267 202.155 147.267 203.592V213H144.831ZM144.607 206.588L140.771 207.064C139.95 207.176 139.334 207.409 138.923 207.764C138.513 208.1 138.307 208.548 138.307 209.108C138.307 209.631 138.503 210.069 138.895 210.424C139.306 210.76 139.875 210.928 140.603 210.928C141.499 210.928 142.246 210.76 142.843 210.424C143.441 210.088 143.879 209.621 144.159 209.024C144.458 208.408 144.607 207.699 144.607 206.896V206.588ZM160.669 195.752H158.009V193.4H163.469V213H160.669V195.752Z" fill="black"/>
<circle cx="37" cy="200" r="20" fill="#E09F7D"/>
<circle cx="37" cy="195" r="10" fill="black"/>
<path d="M51.5 214C48.5 216.5 45.2872 220 37.0029 220C28.5 220 23 214.5 22.5029 213.754C22.5029 207.126 28.7187 206.754 37.0029 206.754C45.2872 206.754 51.5 207.373 51.5 214Z" fill="black"/>
<path d="M77.4266 291.4H92.4626V293.752H86.3586V311H83.5586V293.752H77.4266V291.4ZM104.117 311L103.893 308.956C103.463 309.665 102.903 310.216 102.213 310.608C101.541 310.981 100.663 311.168 99.5805 311.168C98.5725 311.168 97.7139 311.009 97.0045 310.692C96.2952 310.356 95.7445 309.899 95.3525 309.32C94.9792 308.723 94.7925 308.032 94.7925 307.248C94.7925 306.072 95.2312 305.101 96.1085 304.336C96.9859 303.552 98.2552 303.067 99.9165 302.88L103.893 302.432V301.34C103.893 300.743 103.65 300.239 103.165 299.828C102.679 299.399 101.979 299.184 101.065 299.184C100.206 299.184 99.4779 299.389 98.8805 299.8C98.2832 300.192 97.8819 300.78 97.6765 301.564L95.3245 300.724C95.6792 299.492 96.3699 298.531 97.3965 297.84C98.4419 297.149 99.7019 296.804 101.177 296.804C102.931 296.804 104.266 297.243 105.181 298.12C106.095 298.997 106.553 300.155 106.553 301.592V311H104.117ZM103.893 304.588L100.057 305.064C99.2352 305.176 98.6192 305.409 98.2085 305.764C97.7979 306.1 97.5925 306.548 97.5925 307.108C97.5925 307.631 97.7885 308.069 98.1805 308.424C98.5912 308.76 99.1605 308.928 99.8885 308.928C100.785 308.928 101.531 308.76 102.129 308.424C102.726 308.088 103.165 307.621 103.445 307.024C103.743 306.408 103.893 305.699 103.893 304.896V304.588ZM110.342 297H112.75L112.918 298.876C113.31 298.391 113.758 297.989 114.262 297.672C114.785 297.336 115.345 297.103 115.942 296.972C116.558 296.841 117.193 296.851 117.846 297V299.492C117.23 299.343 116.633 299.324 116.054 299.436C115.476 299.548 114.953 299.791 114.486 300.164C114.038 300.519 113.674 300.995 113.394 301.592C113.114 302.189 112.974 302.908 112.974 303.748V311H110.342V297ZM126.59 311.196C125.246 311.196 124.051 310.888 123.006 310.272C121.979 309.637 121.167 308.769 120.57 307.668C119.991 306.567 119.702 305.307 119.702 303.888C119.702 302.525 119.991 301.312 120.57 300.248C121.149 299.184 121.942 298.344 122.95 297.728C123.977 297.112 125.134 296.804 126.422 296.804C127.729 296.804 128.886 297.093 129.894 297.672C130.902 298.232 131.686 299.025 132.246 300.052C132.806 301.06 133.077 302.227 133.058 303.552C133.058 303.776 133.049 304.009 133.03 304.252C133.011 304.476 132.983 304.728 132.946 305.008H122.586C122.642 305.755 122.847 306.417 123.202 306.996C123.575 307.556 124.042 307.995 124.602 308.312C125.181 308.629 125.834 308.788 126.562 308.788C127.495 308.788 128.307 308.611 128.998 308.256C129.689 307.883 130.174 307.388 130.454 306.772L132.75 307.584C132.19 308.723 131.369 309.609 130.286 310.244C129.222 310.879 127.99 311.196 126.59 311.196ZM130.174 302.74C130.174 302.068 130.006 301.461 129.67 300.92C129.334 300.379 128.877 299.959 128.298 299.66C127.738 299.343 127.103 299.184 126.394 299.184C125.759 299.184 125.171 299.343 124.63 299.66C124.107 299.959 123.659 300.379 123.286 300.92C122.931 301.443 122.707 302.049 122.614 302.74H130.174ZM144.831 311L144.607 308.956C144.178 309.665 143.618 310.216 142.927 310.608C142.255 310.981 141.378 311.168 140.295 311.168C139.287 311.168 138.429 311.009 137.719 310.692C137.01 310.356 136.459 309.899 136.067 309.32C135.694 308.723 135.507 308.032 135.507 307.248C135.507 306.072 135.946 305.101 136.823 304.336C137.701 303.552 138.97 303.067 140.631 302.88L144.607 302.432V301.34C144.607 300.743 144.365 300.239 143.879 299.828C143.394 299.399 142.694 299.184 141.779 299.184C140.921 299.184 140.193 299.389 139.595 299.8C138.998 300.192 138.597 300.78 138.391 301.564L136.039 300.724C136.394 299.492 137.085 298.531 138.111 297.84C139.157 297.149 140.417 296.804 141.891 296.804C143.646 296.804 144.981 297.243 145.895 298.12C146.81 298.997 147.267 300.155 147.267 301.592V311H144.831ZM144.607 304.588L140.771 305.064C139.95 305.176 139.334 305.409 138.923 305.764C138.513 306.1 138.307 306.548 138.307 307.108C138.307 307.631 138.503 308.069 138.895 308.424C139.306 308.76 139.875 308.928 140.603 308.928C141.499 308.928 142.246 308.76 142.843 308.424C143.441 308.088 143.879 307.621 144.159 307.024C144.458 306.408 144.607 305.699 144.607 304.896V304.588ZM160.669 293.752H158.009V291.4H163.469V311H160.669V293.752Z" fill="black"/>
<circle cx="37" cy="298" r="20" fill="#2F4858"/>
<circle cx="37" cy="293" r="10" fill="black"/>
<path d="M51.5 312C48.5 314.5 45.2872 318 37.0029 318C28.5 318 23 312.5 22.5029 311.754C22.5029 305.126 28.7187 304.754 37.0029 304.754C45.2872 304.754 51.5 305.373 51.5 312Z" fill="black"/>
<path d="M77.4266 383.4H92.4626V385.752H86.3586V403H83.5586V385.752H77.4266V383.4ZM104.117 403L103.893 400.956C103.463 401.665 102.903 402.216 102.213 402.608C101.541 402.981 100.663 403.168 99.5805 403.168C98.5725 403.168 97.7139 403.009 97.0045 402.692C96.2952 402.356 95.7445 401.899 95.3525 401.32C94.9792 400.723 94.7925 400.032 94.7925 399.248C94.7925 398.072 95.2312 397.101 96.1085 396.336C96.9859 395.552 98.2552 395.067 99.9165 394.88L103.893 394.432V393.34C103.893 392.743 103.65 392.239 103.165 391.828C102.679 391.399 101.979 391.184 101.065 391.184C100.206 391.184 99.4779 391.389 98.8805 391.8C98.2832 392.192 97.8819 392.78 97.6765 393.564L95.3245 392.724C95.6792 391.492 96.3699 390.531 97.3965 389.84C98.4419 389.149 99.7019 388.804 101.177 388.804C102.931 388.804 104.266 389.243 105.181 390.12C106.095 390.997 106.553 392.155 106.553 393.592V403H104.117ZM103.893 396.588L100.057 397.064C99.2352 397.176 98.6192 397.409 98.2085 397.764C97.7979 398.1 97.5925 398.548 97.5925 399.108C97.5925 399.631 97.7885 400.069 98.1805 400.424C98.5912 400.76 99.1605 400.928 99.8885 400.928C100.785 400.928 101.531 400.76 102.129 400.424C102.726 400.088 103.165 399.621 103.445 399.024C103.743 398.408 103.893 397.699 103.893 396.896V396.588ZM110.342 389H112.75L112.918 390.876C113.31 390.391 113.758 389.989 114.262 389.672C114.785 389.336 115.345 389.103 115.942 388.972C116.558 388.841 117.193 388.851 117.846 389V391.492C117.23 391.343 116.633 391.324 116.054 391.436C115.476 391.548 114.953 391.791 114.486 392.164C114.038 392.519 113.674 392.995 113.394 393.592C113.114 394.189 112.974 394.908 112.974 395.748V403H110.342V389ZM126.59 403.196C125.246 403.196 124.051 402.888 123.006 402.272C121.979 401.637 121.167 400.769 120.57 399.668C119.991 398.567 119.702 397.307 119.702 395.888C119.702 394.525 119.991 393.312 120.57 392.248C121.149 391.184 121.942 390.344 122.95 389.728C123.977 389.112 125.134 388.804 126.422 388.804C127.729 388.804 128.886 389.093 129.894 389.672C130.902 390.232 131.686 391.025 132.246 392.052C132.806 393.06 133.077 394.227 133.058 395.552C133.058 395.776 133.049 396.009 133.03 396.252C133.011 396.476 132.983 396.728 132.946 397.008H122.586C122.642 397.755 122.847 398.417 123.202 398.996C123.575 399.556 124.042 399.995 124.602 400.312C125.181 400.629 125.834 400.788 126.562 400.788C127.495 400.788 128.307 400.611 128.998 400.256C129.689 399.883 130.174 399.388 130.454 398.772L132.75 399.584C132.19 400.723 131.369 401.609 130.286 402.244C129.222 402.879 127.99 403.196 126.59 403.196ZM130.174 394.74C130.174 394.068 130.006 393.461 129.67 392.92C129.334 392.379 128.877 391.959 128.298 391.66C127.738 391.343 127.103 391.184 126.394 391.184C125.759 391.184 125.171 391.343 124.63 391.66C124.107 391.959 123.659 392.379 123.286 392.92C122.931 393.443 122.707 394.049 122.614 394.74H130.174ZM144.831 403L144.607 400.956C144.178 401.665 143.618 402.216 142.927 402.608C142.255 402.981 141.378 403.168 140.295 403.168C139.287 403.168 138.429 403.009 137.719 402.692C137.01 402.356 136.459 401.899 136.067 401.32C135.694 400.723 135.507 400.032 135.507 399.248C135.507 398.072 135.946 397.101 136.823 396.336C137.701 395.552 138.97 395.067 140.631 394.88L144.607 394.432V393.34C144.607 392.743 144.365 392.239 143.879 391.828C143.394 391.399 142.694 391.184 141.779 391.184C140.921 391.184 140.193 391.389 139.595 391.8C138.998 392.192 138.597 392.78 138.391 393.564L136.039 392.724C136.394 391.492 137.085 390.531 138.111 389.84C139.157 389.149 140.417 388.804 141.891 388.804C143.646 388.804 144.981 389.243 145.895 390.12C146.81 390.997 147.267 392.155 147.267 393.592V403H144.831ZM144.607 396.588L140.771 397.064C139.95 397.176 139.334 397.409 138.923 397.764C138.513 398.1 138.307 398.548 138.307 399.108C138.307 399.631 138.503 400.069 138.895 400.424C139.306 400.76 139.875 400.928 140.603 400.928C141.499 400.928 142.246 400.76 142.843 400.424C143.441 400.088 143.879 399.621 144.159 399.024C144.458 398.408 144.607 397.699 144.607 396.896V396.588ZM160.669 385.752H158.009V383.4H163.469V403H160.669V385.752Z" fill="black"/>
<circle cx="37" cy="390" r="20" fill="#82D173"/>
<circle cx="37" cy="385" r="10" fill="black"/>
<path d="M51.5 404C48.5 406.5 45.2872 410 37.0029 410C28.5 410 23 404.5 22.5029 403.754C22.5029 397.126 28.7187 396.754 37.0029 396.754C45.2872 396.754 51.5 397.373 51.5 404Z" fill="black"/>
</svg>
