<svg width="3723" height="594" viewBox="0 0 3723 594" fill="none" xmlns="http://www.w3.org/2000/svg">
<path d="M433.735 386.03C433.735 402.33 432.92 418.902 431.29 435.745C429.66 452.045 426.4 468.073 421.51 483.83C416.62 499.043 409.285 513.713 399.505 527.84C389.725 541.423 376.413 553.377 359.57 563.7C351.42 569.133 341.64 573.752 330.23 577.555C319.363 580.815 307.682 583.532 295.185 585.705C283.232 588.422 271.278 590.052 259.325 590.595C247.372 591.682 236.233 591.953 225.91 591.41C177.01 589.78 137.347 578.098 106.92 556.365C77.0367 534.088 53.945 506.65 37.645 474.05C21.8883 441.45 11.565 406.133 6.675 368.1C2.32833 329.523 1.51333 292.848 4.23 258.075C5.86 237.428 9.39167 215.152 14.825 191.245C20.8017 167.338 29.2233 144.247 40.09 121.97C51.5 99.6933 65.355 79.59 81.655 61.66C98.4983 43.73 118.33 30.1466 141.15 20.91C162.34 12.2166 185.432 6.78331 210.425 4.60998C235.962 1.89331 260.955 2.70832 285.405 7.05499C310.398 11.4016 333.49 19.28 354.68 30.69C376.413 42.1 393.528 57.3133 406.025 76.33C414.718 90.4567 421.51 107.572 426.4 127.675C431.29 147.778 432.105 167.067 428.845 185.54C426.128 201.84 420.423 213.25 411.73 219.77C403.037 225.747 393.528 228.192 383.205 227.105C372.882 225.475 362.83 221.128 353.05 214.065C343.813 206.458 337.565 196.95 334.305 185.54C330.502 173.043 325.883 161.633 320.45 151.31C315.017 140.443 306.595 131.478 295.185 124.415C282.145 116.265 268.29 111.647 253.62 110.56C239.493 109.473 225.638 111.103 212.055 115.45C199.015 119.797 186.518 126.588 174.565 135.825C163.155 145.062 153.647 155.657 146.04 167.61C136.803 181.193 129.74 196.135 124.85 212.435C119.96 228.192 116.428 244.763 114.255 262.15C112.082 278.993 111.267 296.108 111.81 313.495C112.897 330.338 115.07 346.638 118.33 362.395C124.307 389.018 133.543 414.012 146.04 437.375C150.93 446.068 157.45 453.947 165.6 461.01C174.293 467.53 183.802 472.963 194.125 477.31C204.448 481.113 215.315 483.558 226.725 484.645C238.135 485.732 249.002 484.917 259.325 482.2C273.995 478.397 285.948 473.507 295.185 467.53C304.422 461.01 311.757 453.403 317.19 444.71C322.623 436.017 326.155 426.508 327.785 416.185C329.958 405.862 331.045 394.995 331.045 383.585V382.77C323.982 382.77 317.733 382.77 312.3 382.77C306.867 382.227 302.792 381.955 300.075 381.955C288.122 381.955 276.44 379.782 265.03 375.435C255.25 372.175 247.915 367.013 243.025 359.95C237.592 353.973 234.875 346.638 234.875 337.945C234.875 334.685 234.875 331.697 234.875 328.98C235.418 325.72 235.962 322.46 236.505 319.2C238.135 314.853 241.667 309.42 247.1 302.9C250.36 300.183 255.522 298.01 262.585 296.38C265.845 295.293 269.105 294.478 272.365 293.935C275.625 292.848 279.428 292.033 283.775 291.49C287.035 290.947 290.567 290.675 294.37 290.675C298.173 290.675 301.977 290.675 305.78 290.675H379.945C385.922 290.132 392.713 290.947 400.32 293.12C408.47 294.75 414.718 297.467 419.065 301.27C420.695 303.443 422.325 305.617 423.955 307.79C425.585 309.963 426.943 312.408 428.03 315.125C430.203 321.102 431.562 327.078 432.105 333.055C432.648 336.315 432.92 339.847 432.92 343.65C433.463 346.91 433.735 349.898 433.735 352.615V386.03ZM594.596 236.885C610.896 228.735 628.011 223.03 645.941 219.77C663.871 215.967 681.529 215.152 698.916 217.325C716.846 218.955 733.961 223.573 750.261 231.18C766.561 238.243 781.774 248.567 795.901 262.15C810.027 276.277 820.894 291.762 828.501 308.605C836.107 325.448 841.541 344.193 844.801 364.84C846.974 378.967 850.506 392.007 855.396 403.96C860.286 415.913 865.447 427.867 870.881 439.82C876.857 451.773 882.291 463.727 887.181 475.68C892.614 487.633 896.961 500.13 900.221 513.17C902.937 525.667 901.851 537.892 896.961 549.845C892.614 561.255 883.377 568.318 869.251 571.035C861.101 572.665 853.222 572.122 845.616 569.405C838.552 566.145 832.032 561.798 826.056 556.365C820.079 550.388 814.646 544.14 809.756 537.62C805.409 530.557 801.334 524.037 797.531 518.06C785.034 534.36 771.451 547.128 756.781 556.365C742.111 565.058 724.452 570.763 703.806 573.48C686.419 575.653 669.847 576.197 654.091 575.11C638.334 574.023 621.491 571.035 603.561 566.145C580.197 560.168 560.909 549.845 545.696 535.175C531.026 519.962 519.616 502.575 511.466 483.015C503.859 462.912 499.784 441.45 499.241 418.63C498.697 395.81 501.414 373.262 507.391 350.985C514.997 321.645 526.407 297.738 541.621 279.265C556.834 260.792 574.492 246.665 594.596 236.885ZM614.971 332.24C607.364 339.847 601.387 348.812 597.041 359.135C592.694 369.458 589.977 380.325 588.891 391.735C588.347 403.145 589.434 414.555 592.151 425.965C594.867 437.375 599.214 447.427 605.191 456.12C610.624 463.727 619.861 470.247 632.901 475.68C645.941 480.57 659.524 483.558 673.651 484.645C689.951 485.732 704.077 481.385 716.031 471.605C728.527 461.825 737.764 449.6 743.741 434.93C750.261 419.717 753.249 403.688 752.706 386.845C752.162 369.458 747.544 353.702 738.851 339.575C732.331 329.252 723.637 321.645 712.771 316.755C702.447 311.865 691.309 309.42 679.356 309.42C667.402 308.877 655.449 310.778 643.496 315.125C632.086 318.928 622.577 324.633 614.971 332.24ZM968.84 289.045C968.84 276.548 968.568 263.237 968.025 249.11C968.025 234.983 970.47 222.215 975.36 210.805C979.706 200.482 986.77 193.147 996.55 188.8C1006.87 183.91 1016.92 182.823 1026.7 185.54C1036.48 187.17 1044.09 190.158 1049.52 194.505C1054.96 198.852 1058.76 204.013 1060.93 209.99C1063.65 215.423 1065.28 221.943 1065.82 229.55C1066.37 236.613 1066.91 243.677 1067.45 250.74C1072.89 240.96 1079.68 233.082 1087.83 227.105C1095.98 221.128 1104.4 216.238 1113.09 212.435C1121.79 208.632 1129.94 205.915 1137.54 204.285C1145.69 202.655 1151.94 201.84 1156.29 201.84C1176.94 201.84 1197.31 206.458 1217.41 215.695C1238.06 224.388 1255.18 236.885 1268.76 253.185C1276.37 262.965 1282.07 273.288 1285.87 284.155C1290.22 294.478 1293.21 305.345 1294.84 316.755C1297.01 328.165 1298.37 339.847 1298.91 351.8C1299.46 363.21 1300 374.892 1300.54 386.845C1303.26 421.618 1303.26 456.12 1300.54 490.35C1300 497.413 1299.73 505.563 1299.73 514.8C1299.73 524.037 1298.91 533.273 1297.28 542.51C1296.2 551.203 1293.75 559.082 1289.95 566.145C1286.69 572.665 1280.98 576.74 1272.83 578.37C1261.42 581.087 1251.92 581.63 1244.31 580C1237.25 578.913 1231.54 576.468 1227.19 572.665C1222.85 568.862 1219.59 563.972 1217.41 557.995C1215.24 552.018 1213.34 545.227 1211.71 537.62C1210.62 531.643 1209.54 524.852 1208.45 517.245C1207.91 509.095 1207.36 500.945 1206.82 492.795C1206.82 484.645 1206.55 476.767 1206 469.16C1206 461.01 1206 453.675 1206 447.155C1206 436.832 1205.73 425.422 1205.19 412.925C1204.65 400.428 1204.65 388.747 1205.19 377.88C1205.19 352.343 1198.4 333.055 1184.81 320.015C1171.77 306.432 1153.84 300.727 1131.02 302.9C1113.64 305.073 1098.42 312.137 1085.38 324.09C1072.34 335.5 1066.1 350.442 1066.64 368.915C1066.64 375.978 1066.64 382.498 1066.64 388.475C1066.64 394.452 1066.37 400.428 1065.82 406.405C1065.82 412.382 1065.82 418.902 1065.82 425.965C1065.82 433.028 1065.82 440.907 1065.82 449.6C1065.82 467.53 1065.82 486.547 1065.82 506.65C1065.82 526.21 1063.38 542.238 1058.49 554.735C1054.14 567.775 1046.81 576.74 1036.48 581.63C1026.16 586.52 1013.94 585.162 999.81 577.555C993.833 574.295 988.943 569.948 985.14 564.515C981.88 558.538 979.163 552.29 976.99 545.77C975.36 539.25 974.273 532.73 973.73 526.21C973.186 519.147 972.643 512.627 972.1 506.65C970.47 488.72 969.383 472.148 968.84 456.935C968.84 441.178 968.84 424.335 968.84 406.405V289.045ZM1683.73 220.585C1688.08 230.908 1688.35 242.318 1684.55 254.815C1681.29 267.312 1675.04 275.462 1665.8 279.265C1660.91 281.438 1654.39 283.34 1646.24 284.97C1638.09 286.057 1629.13 287.143 1619.35 288.23C1610.11 289.317 1600.88 290.132 1591.64 290.675C1582.4 291.218 1574.52 291.49 1568 291.49C1568.55 307.79 1569.09 324.633 1569.63 342.02C1570.18 358.863 1570.72 375.435 1571.26 391.735C1571.81 408.035 1572.08 423.792 1572.08 439.005C1572.08 453.675 1571.81 466.987 1571.26 478.94C1571.26 487.09 1571.26 496.598 1571.26 507.465C1571.26 517.788 1570.45 527.84 1568.82 537.62C1567.73 547.4 1565.83 556.093 1563.11 563.7C1560.4 570.763 1556.32 575.382 1550.89 577.555C1534.05 584.618 1518.56 586.52 1504.43 583.26C1490.85 580.543 1481.07 574.838 1475.09 566.145C1470.75 559.082 1467.49 550.932 1465.31 541.695C1463.14 531.915 1461.51 522.135 1460.42 512.355C1459.88 502.032 1459.61 492.252 1459.61 483.015C1460.15 473.235 1460.42 464.813 1460.42 457.75C1460.97 434.93 1461.24 409.122 1461.24 380.325C1461.78 350.985 1462.05 321.645 1462.05 292.305H1449.83C1443.31 292.305 1434.89 292.305 1424.56 292.305C1414.78 291.762 1404.73 290.947 1394.41 289.86C1384.63 288.23 1375.39 286.328 1366.7 284.155C1358.01 281.438 1351.76 277.635 1347.95 272.745C1341.98 265.682 1338.17 258.075 1336.54 249.925C1335.46 241.775 1336 234.168 1338.17 227.105C1340.89 219.498 1344.97 212.978 1350.4 207.545C1355.83 201.568 1362.08 197.765 1369.14 196.135C1378.92 193.418 1392.78 192.06 1410.71 192.06C1428.64 191.517 1445.48 191.517 1461.24 192.06C1460.7 186.627 1460.42 181.465 1460.42 176.575C1460.42 171.142 1460.15 165.98 1459.61 161.09C1459.07 154.57 1458.79 146.42 1458.79 136.64C1458.79 126.317 1459.34 116.265 1460.42 106.485C1462.05 96.1616 1464.5 86.6533 1467.76 77.96C1471.02 68.7233 1475.64 61.66 1481.61 56.77C1489.76 50.25 1497.91 46.7183 1506.06 46.175C1514.76 45.0883 1522.64 46.175 1529.7 49.435C1537.31 52.695 1543.55 57.585 1548.44 64.105C1553.88 70.0816 1557.68 76.8733 1559.85 84.48C1561.48 91 1562.84 98.8783 1563.93 108.115C1565.02 116.808 1565.56 126.045 1565.56 135.825C1566.1 145.605 1566.37 155.385 1566.37 165.165C1566.37 174.945 1566.37 183.91 1566.37 192.06H1574.52C1582.67 192.06 1592.18 191.788 1603.05 191.245C1613.92 190.702 1624.51 190.973 1634.83 192.06C1645.7 193.147 1655.48 195.863 1664.17 200.21C1672.87 204.013 1679.39 210.805 1683.73 220.585ZM2100.79 220.585C2105.13 230.908 2105.4 242.318 2101.6 254.815C2098.34 267.312 2092.09 275.462 2082.86 279.265C2077.97 281.438 2071.45 283.34 2063.3 284.97C2055.15 286.057 2046.18 287.143 2036.4 288.23C2027.16 289.317 2017.93 290.132 2008.69 290.675C1999.45 291.218 1991.58 291.49 1985.06 291.49C1985.6 307.79 1986.14 324.633 1986.69 342.02C1987.23 358.863 1987.77 375.435 1988.32 391.735C1988.86 408.035 1989.13 423.792 1989.13 439.005C1989.13 453.675 1988.86 466.987 1988.32 478.94C1988.32 487.09 1988.32 496.598 1988.32 507.465C1988.32 517.788 1987.5 527.84 1985.87 537.62C1984.78 547.4 1982.88 556.093 1980.17 563.7C1977.45 570.763 1973.37 575.382 1967.94 577.555C1951.1 584.618 1935.61 586.52 1921.49 583.26C1907.9 580.543 1898.12 574.838 1892.15 566.145C1887.8 559.082 1884.54 550.932 1882.37 541.695C1880.19 531.915 1878.56 522.135 1877.48 512.355C1876.93 502.032 1876.66 492.252 1876.66 483.015C1877.2 473.235 1877.48 464.813 1877.48 457.75C1878.02 434.93 1878.29 409.122 1878.29 380.325C1878.83 350.985 1879.11 321.645 1879.11 292.305H1866.88C1860.36 292.305 1851.94 292.305 1841.62 292.305C1831.84 291.762 1821.78 290.947 1811.46 289.86C1801.68 288.23 1792.44 286.328 1783.75 284.155C1775.06 281.438 1768.81 277.635 1765.01 272.745C1759.03 265.682 1755.23 258.075 1753.6 249.925C1752.51 241.775 1753.05 234.168 1755.23 227.105C1757.94 219.498 1762.02 212.978 1767.45 207.545C1772.88 201.568 1779.13 197.765 1786.2 196.135C1795.98 193.418 1809.83 192.06 1827.76 192.06C1845.69 191.517 1862.53 191.517 1878.29 192.06C1877.75 186.627 1877.48 181.465 1877.48 176.575C1877.48 171.142 1877.2 165.98 1876.66 161.09C1876.12 154.57 1875.85 146.42 1875.85 136.64C1875.85 126.317 1876.39 116.265 1877.48 106.485C1879.11 96.1616 1881.55 86.6533 1884.81 77.96C1888.07 68.7233 1892.69 61.66 1898.67 56.77C1906.82 50.25 1914.97 46.7183 1923.12 46.175C1931.81 45.0883 1939.69 46.175 1946.75 49.435C1954.36 52.695 1960.61 57.585 1965.5 64.105C1970.93 70.0816 1974.73 76.8733 1976.91 84.48C1978.54 91 1979.89 98.8783 1980.98 108.115C1982.07 116.808 1982.61 126.045 1982.61 135.825C1983.15 145.605 1983.43 155.385 1983.43 165.165C1983.43 174.945 1983.43 183.91 1983.43 192.06H1991.58C1999.73 192.06 2009.23 191.788 2020.1 191.245C2030.97 190.702 2041.56 190.973 2051.89 192.06C2062.75 193.147 2072.53 195.863 2081.23 200.21C2089.92 204.013 2096.44 210.805 2100.79 220.585ZM2550.44 27.43C2555.33 33.95 2558.31 41.5567 2559.4 50.25C2559.4 53.51 2559.13 56.77 2558.59 60.03C2558.59 62.7467 2558.31 65.4633 2557.77 68.18C2557.23 74.1566 2553.7 79.8616 2547.18 85.295C2543.37 88.0116 2538.48 90.7283 2532.51 93.445C2529.25 94.5317 2525.71 95.3466 2521.91 95.89C2518.65 95.89 2514.85 96.1616 2510.5 96.705C2507.24 97.7916 2503.71 98.335 2499.91 98.335C2496.1 98.335 2492.3 98.335 2488.5 98.335H2451.82L2281.49 99.15V101.595L2280.67 234.44C2285.02 234.44 2289.64 234.44 2294.53 234.44C2299.96 234.44 2306.48 234.168 2314.09 233.625C2335.82 233.625 2355.11 233.625 2371.95 233.625C2389.34 233.625 2408.35 233.897 2429 234.44H2433.89C2439.87 234.44 2445.84 234.712 2451.82 235.255C2458.34 235.255 2464.86 235.255 2471.38 235.255C2477.36 235.798 2483.33 236.613 2489.31 237.7C2495.29 238.243 2501.26 239.602 2507.24 241.775C2517.02 245.035 2524.08 250.197 2528.43 257.26C2534.41 264.323 2537.4 271.658 2537.4 279.265C2537.4 282.525 2537.4 285.785 2537.4 289.045C2537.4 291.762 2536.85 294.75 2535.77 298.01C2535.22 302.357 2531.69 307.79 2525.17 314.31C2520.82 318.113 2515.66 320.558 2509.69 321.645C2506.97 322.732 2503.71 323.818 2499.91 324.905C2496.65 325.448 2493.11 325.992 2489.31 326.535C2485.51 327.078 2481.7 327.622 2477.9 328.165C2474.64 328.165 2470.84 328.165 2466.49 328.165H2429L2279.04 328.98L2276.6 518.06V524.58C2276.6 527.297 2276.32 530.013 2275.78 532.73C2275.78 534.903 2275.51 537.348 2274.97 540.065C2273.88 542.782 2272.79 545.77 2271.71 549.03C2271.16 551.747 2270.35 554.463 2269.26 557.18C2265.46 564.787 2261.93 569.948 2258.67 572.665C2252.69 577.012 2245.35 580 2236.66 581.63C2221.99 584.89 2208.14 583.26 2195.1 576.74C2192.38 575.11 2189.66 573.208 2186.95 571.035C2184.77 568.318 2182.87 565.058 2181.24 561.255C2180.15 559.082 2179.61 557.452 2179.61 556.365L2177.17 551.475C2175.54 548.758 2174.45 546.042 2173.91 543.325C2173.36 540.065 2172.82 537.077 2172.28 534.36C2172.28 531.643 2172 528.927 2171.46 526.21C2171.46 523.493 2171.19 520.777 2170.65 518.06C2170.1 513.713 2170.1 509.367 2170.65 505.02V491.98L2171.46 428.41L2172.28 311.05C2172.82 293.663 2173.09 276.005 2173.09 258.075C2173.09 240.145 2173.09 221.672 2173.09 202.655C2172.55 183.095 2172.28 165.708 2172.28 150.495C2172.82 135.282 2173.63 118.71 2174.72 100.78V96.705C2175.26 90.7283 2175.54 85.295 2175.54 80.405C2175.54 74.9716 2176.08 69.5383 2177.17 64.105C2178.25 52.1516 2180.97 41.5566 2185.32 32.32C2189.12 23.0833 2194.55 16.5633 2201.62 12.76C2209.77 7.86997 2218.46 5.42497 2227.7 5.42497C2232.04 5.42497 2235.57 5.69663 2238.29 6.23995V5.42497C2248.07 5.42497 2255.95 5.42497 2261.93 5.42497C2267.9 5.42497 2273.61 5.42497 2279.04 5.42497C2284.47 5.42497 2290.45 5.42497 2296.97 5.42497C2303.49 4.88164 2312.18 4.60998 2323.05 4.60998C2366.52 4.06665 2409.44 4.06665 2451.82 4.60998H2455.9C2461.87 5.1533 2467.85 5.42497 2473.83 5.42497C2480.35 5.42497 2486.87 5.69663 2493.39 6.23995C2499.36 6.23995 2505.34 7.05496 2511.32 8.68497C2517.29 9.77162 2523.27 11.4016 2529.25 13.575C2538.48 16.2916 2545.55 20.91 2550.44 27.43ZM2721.54 514.8C2721 517.517 2720.46 520.233 2719.91 522.95C2719.91 525.123 2719.91 527.568 2719.91 530.285L2715.02 547.4C2713.94 549.573 2713.12 550.932 2712.58 551.475L2710.13 556.365C2707.42 562.342 2702.53 567.232 2695.46 571.035C2682.42 577.555 2668.57 579.185 2653.9 575.925C2644.66 574.838 2637.33 572.122 2631.89 567.775C2626.46 563.972 2622.66 559.353 2620.48 553.92C2618.31 548.487 2616.68 543.053 2615.59 537.62C2613.96 532.187 2613.15 527.297 2613.15 522.95V66.55C2613.15 62.7466 2613.15 59.4866 2613.15 56.77C2613.69 53.51 2614.23 50.5217 2614.78 47.805C2615.32 44.0016 2615.86 40.7416 2616.41 38.025C2617.49 35.3083 2618.58 32.32 2619.67 29.06C2621.3 23.6266 2624.29 19.28 2628.63 16.02C2635.15 11.13 2641.4 8.41331 2647.38 7.86998C2651.18 6.7833 2654.71 6.23995 2657.97 6.23995C2661.23 5.69663 2665.04 5.42497 2669.38 5.42497C2676.99 5.42497 2685.68 7.5983 2695.46 11.945C2703.07 16.2917 2708.5 22.2683 2711.76 29.875C2717.2 40.7416 2719.91 50.7933 2719.91 60.03C2720.46 65.4633 2720.73 73.6133 2720.73 84.48C2721.27 95.3467 2721.54 103.497 2721.54 108.93V112.19C2722.63 129.577 2723.17 146.42 2723.17 162.72C2723.17 178.477 2722.9 195.863 2722.36 214.88C2722.36 233.353 2722.09 251.283 2721.54 268.67C2721.54 285.513 2721.54 302.357 2721.54 319.2V490.35C2721.54 492.523 2721.54 494.697 2721.54 496.87C2722.09 498.5 2722.36 500.402 2722.36 502.575C2722.36 508.008 2722.09 512.083 2721.54 514.8ZM2893.38 211.62C2911.31 202.927 2930.05 196.678 2949.61 192.875C2969.17 189.072 2988.46 188.257 3007.48 190.43C3027.04 192.603 3045.78 197.765 3063.71 205.915C3082.19 214.065 3099.03 225.475 3114.24 240.145C3126.74 252.642 3137.61 267.855 3146.84 285.785C3156.08 303.172 3162.87 320.287 3167.22 337.13C3176.46 367.013 3177.81 397.168 3171.29 427.595C3164.77 458.022 3153.64 486.275 3137.88 512.355C3130.27 524.308 3120.76 535.175 3109.35 544.955C3098.49 554.192 3086.81 561.798 3074.31 567.775C3058.01 575.382 3040.35 580.543 3021.33 583.26C3002.32 586.52 2983.84 587.335 2965.91 585.705C2933.31 584.075 2904.52 575.925 2879.52 561.255C2855.07 546.585 2835.24 527.84 2820.03 505.02C2805.36 482.2 2795.58 456.392 2790.69 427.595C2786.34 398.255 2788.24 368.372 2796.39 337.945C2805.09 305.345 2817.58 278.993 2833.88 258.89C2850.73 238.243 2870.56 222.487 2893.38 211.62ZM2917.83 320.83C2909.68 328.437 2903.43 337.945 2899.08 349.355C2894.74 360.765 2892.02 372.718 2890.93 385.215C2889.85 397.168 2890.66 409.393 2893.38 421.89C2896.64 433.843 2901.53 444.71 2908.05 454.49C2913.48 462.64 2923.26 469.432 2937.39 474.865C2951.52 480.298 2966.19 483.558 2981.4 484.645C2998.79 485.732 3014 481.113 3027.04 470.79C3040.08 459.923 3049.86 446.612 3056.38 430.855C3063.44 415.098 3066.7 397.983 3066.16 379.51C3065.62 361.037 3060.73 344.193 3051.49 328.98C3044.97 318.113 3035.73 310.235 3023.78 305.345C3012.37 299.912 3000.14 297.195 2987.1 297.195C2974.61 296.652 2962.11 298.553 2949.61 302.9C2937.12 306.703 2926.52 312.68 2917.83 320.83ZM3715.46 213.25C3720.35 220.313 3721.98 231.452 3720.35 246.665C3719.26 261.335 3716.55 277.363 3712.2 294.75C3707.85 311.593 3702.69 328.437 3696.71 345.28C3690.74 361.58 3685.85 375.163 3682.04 386.03C3672.81 411.023 3664.66 434.387 3657.59 456.12C3650.53 477.853 3642.11 501.76 3632.33 527.84C3629.07 535.447 3625.81 543.053 3622.55 550.66C3619.83 558.267 3616.3 565.058 3611.95 571.035C3608.15 577.012 3603.26 581.902 3597.28 585.705C3591.85 589.508 3585.06 591.41 3576.91 591.41C3567.67 591.41 3559.52 588.15 3552.46 581.63C3545.94 575.11 3540.23 566.96 3535.34 557.18C3531 547.4 3527.19 537.077 3523.93 526.21C3520.67 515.343 3517.96 505.835 3515.78 497.685C3508.72 473.778 3502.47 452.045 3497.04 432.485C3491.61 412.382 3486.72 394.452 3482.37 378.695C3477.48 394.452 3472.59 411.567 3467.7 430.04C3462.81 448.513 3456.56 469.432 3448.95 492.795C3446.78 500.945 3444.06 510.997 3440.8 522.95C3437.54 534.36 3433.47 545.227 3428.58 555.55C3424.23 565.873 3418.53 574.567 3411.46 581.63C3404.94 589.237 3397.07 592.497 3387.83 591.41C3374.79 590.867 3363.38 585.705 3353.6 575.925C3344.36 565.602 3336.21 553.377 3329.15 539.25C3322.63 525.123 3316.92 510.453 3312.03 495.24C3307.14 480.027 3303.07 466.715 3299.81 455.305C3295.46 440.635 3290.3 424.335 3284.32 406.405C3278.35 388.475 3272.37 370.273 3266.39 351.8C3260.96 332.783 3255.8 314.038 3250.91 295.565C3246.02 276.548 3242.76 259.162 3241.13 243.405C3240.04 233.082 3241.94 223.573 3246.83 214.88C3252.27 206.187 3259.06 200.21 3267.21 196.95C3275.9 193.147 3285.14 192.332 3294.92 194.505C3305.24 196.678 3314.48 203.198 3322.63 214.065C3326.98 219.498 3330.78 226.29 3334.04 234.44C3337.84 242.59 3341.1 251.555 3343.82 261.335C3346.54 270.572 3349.25 280.08 3351.97 289.86C3354.69 299.64 3357.4 309.148 3360.12 318.385C3366.1 339.032 3370.99 355.332 3374.79 367.285C3379.14 378.695 3383.48 390.648 3387.83 403.145C3391.63 390.648 3395.44 378.695 3399.24 367.285C3403.59 355.332 3408.75 339.032 3414.72 318.385C3416.9 311.865 3419.34 304.53 3422.06 296.38C3425.32 287.687 3428.58 279.537 3431.84 271.93C3435.64 264.323 3439.72 257.26 3444.06 250.74C3448.95 243.677 3454.12 238.515 3459.55 235.255C3471.5 227.105 3482.37 225.203 3492.15 229.55C3501.93 233.353 3510.35 240.145 3517.41 249.925C3524.48 259.705 3530.45 271.115 3535.34 284.155C3540.78 296.652 3545.12 308.062 3548.38 318.385C3551.64 329.252 3554.63 338.76 3557.35 346.91C3560.07 354.517 3562.51 361.58 3564.68 368.1C3566.86 374.62 3568.76 380.868 3570.39 386.845C3572.56 392.822 3574.74 399.07 3576.91 405.59C3579.08 399.07 3580.98 392.822 3582.61 386.845C3584.79 380.868 3586.96 374.62 3589.13 368.1C3591.31 361.58 3593.75 354.517 3596.47 346.91C3599.19 338.76 3602.17 329.252 3605.43 318.385C3607.61 311.322 3609.78 303.172 3611.95 293.935C3614.67 284.698 3617.39 275.462 3620.1 266.225C3622.82 256.445 3625.54 247.208 3628.25 238.515C3631.51 229.822 3635.05 222.487 3638.85 216.51C3642.65 210.533 3647.81 205.643 3654.33 201.84C3660.85 197.493 3667.65 195.048 3674.71 194.505C3681.77 193.418 3688.84 194.233 3695.9 196.95C3703.51 199.667 3710.03 205.1 3715.46 213.25Z" fill="#33B464"/>
</svg>
