<svg width="480" height="64" viewBox="0 0 480 64" fill="none" xmlns="http://www.w3.org/2000/svg">
<path d="M0 8C0 3.58172 3.58172 0 8 0H472C476.418 0 480 3.58172 480 8V56C480 60.4183 476.418 64 472 64H7.99999C3.58171 64 0 60.4183 0 56V8Z" fill="#82D173"/>
<path d="M192.256 26.3636V38H190.148V26.3636H192.256ZM196.504 32.8864V38H194.447V29.2727H196.413V30.7557H196.516C196.716 30.267 197.036 29.8788 197.476 29.5909C197.919 29.303 198.466 29.1591 199.118 29.1591C199.72 29.1591 200.245 29.2879 200.692 29.5455C201.143 29.803 201.491 30.1761 201.737 30.6648C201.987 31.1534 202.11 31.7462 202.107 32.4432V38H200.05V32.7614C200.05 32.178 199.898 31.7216 199.595 31.392C199.296 31.0625 198.881 30.8977 198.351 30.8977C197.991 30.8977 197.671 30.9773 197.391 31.1364C197.114 31.2917 196.896 31.517 196.737 31.8125C196.582 32.108 196.504 32.4659 196.504 32.8864ZM204.197 38V29.2727H206.254V38H204.197ZM205.232 28.0341C204.906 28.0341 204.625 27.9261 204.391 27.7102C204.156 27.4905 204.038 27.2273 204.038 26.9205C204.038 26.6098 204.156 26.3466 204.391 26.1307C204.625 25.911 204.906 25.8011 205.232 25.8011C205.561 25.8011 205.841 25.911 206.072 26.1307C206.307 26.3466 206.425 26.6098 206.425 26.9205C206.425 27.2273 206.307 27.4905 206.072 27.7102C205.841 27.9261 205.561 28.0341 205.232 28.0341ZM212.176 38.1705C211.305 38.1705 210.557 37.9792 209.932 37.5966C209.311 37.214 208.831 36.6856 208.494 36.0114C208.161 35.3333 207.994 34.553 207.994 33.6705C207.994 32.7841 208.165 32.0019 208.506 31.3239C208.847 30.642 209.328 30.1117 209.949 29.733C210.574 29.3504 211.313 29.1591 212.165 29.1591C212.873 29.1591 213.5 29.2898 214.045 29.5511C214.595 29.8087 215.032 30.1742 215.358 30.6477C215.684 31.1174 215.869 31.6667 215.915 32.2955H213.949C213.869 31.875 213.68 31.5246 213.381 31.2443C213.085 30.9602 212.689 30.8182 212.193 30.8182C211.773 30.8182 211.403 30.9318 211.085 31.1591C210.767 31.3826 210.519 31.7045 210.341 32.125C210.167 32.5455 210.08 33.0492 210.08 33.6364C210.08 34.2311 210.167 34.7424 210.341 35.1705C210.515 35.5947 210.759 35.9223 211.074 36.1534C211.392 36.3807 211.765 36.4943 212.193 36.4943C212.496 36.4943 212.767 36.4375 213.006 36.3239C213.248 36.2064 213.451 36.0379 213.614 35.8182C213.777 35.5985 213.888 35.3314 213.949 35.017H215.915C215.866 35.6345 215.684 36.1818 215.369 36.6591C215.055 37.1326 214.627 37.5038 214.085 37.7727C213.544 38.0379 212.907 38.1705 212.176 38.1705ZM217.604 38V29.2727H219.661V38H217.604ZM218.638 28.0341C218.312 28.0341 218.032 27.9261 217.797 27.7102C217.562 27.4905 217.445 27.2273 217.445 26.9205C217.445 26.6098 217.562 26.3466 217.797 26.1307C218.032 25.911 218.312 25.8011 218.638 25.8011C218.967 25.8011 219.248 25.911 219.479 26.1307C219.714 26.3466 219.831 26.6098 219.831 26.9205C219.831 27.2273 219.714 27.4905 219.479 27.7102C219.248 27.9261 218.967 28.0341 218.638 28.0341ZM224.287 38.1761C223.734 38.1761 223.236 38.0777 222.793 37.8807C222.353 37.6799 222.005 37.3845 221.747 36.9943C221.493 36.6042 221.366 36.1231 221.366 35.5511C221.366 35.0587 221.457 34.6515 221.639 34.3295C221.821 34.0076 222.069 33.75 222.384 33.5568C222.698 33.3636 223.052 33.2178 223.446 33.1193C223.844 33.017 224.255 32.9432 224.679 32.8977C225.19 32.8447 225.605 32.7973 225.923 32.7557C226.241 32.7102 226.473 32.642 226.616 32.5511C226.764 32.4564 226.838 32.3106 226.838 32.1136V32.0795C226.838 31.6515 226.711 31.3201 226.457 31.0852C226.204 30.8504 225.838 30.733 225.361 30.733C224.857 30.733 224.457 30.8428 224.162 31.0625C223.87 31.2822 223.673 31.5417 223.571 31.8409L221.651 31.5682C221.802 31.0379 222.052 30.5947 222.401 30.2386C222.749 29.8788 223.175 29.6098 223.679 29.4318C224.183 29.25 224.74 29.1591 225.349 29.1591C225.77 29.1591 226.188 29.2083 226.605 29.3068C227.022 29.4053 227.402 29.5682 227.747 29.7955C228.092 30.0189 228.368 30.3239 228.577 30.7102C228.789 31.0966 228.895 31.5795 228.895 32.1591V38H226.918V36.8011H226.849C226.724 37.0436 226.548 37.2708 226.321 37.483C226.098 37.6913 225.815 37.8598 225.474 37.9886C225.137 38.1136 224.741 38.1761 224.287 38.1761ZM224.821 36.6648C225.234 36.6648 225.592 36.5833 225.895 36.4205C226.198 36.2538 226.431 36.0341 226.594 35.7614C226.76 35.4886 226.844 35.1913 226.844 34.8693V33.8409C226.779 33.8939 226.67 33.9432 226.514 33.9886C226.363 34.0341 226.192 34.0739 226.003 34.108C225.813 34.142 225.626 34.1723 225.44 34.1989C225.255 34.2254 225.094 34.2481 224.957 34.267C224.651 34.3087 224.376 34.3769 224.134 34.4716C223.891 34.5663 223.7 34.6989 223.56 34.8693C223.42 35.036 223.349 35.2519 223.349 35.517C223.349 35.8958 223.488 36.1818 223.764 36.375C224.041 36.5682 224.393 36.6648 224.821 36.6648ZM230.963 38V29.2727H232.957V30.7273H233.048C233.207 30.2235 233.48 29.8352 233.866 29.5625C234.257 29.286 234.702 29.1477 235.202 29.1477C235.315 29.1477 235.442 29.1534 235.582 29.1648C235.726 29.1723 235.846 29.1856 235.94 29.2045V31.0966C235.853 31.0663 235.715 31.0398 235.526 31.017C235.34 30.9905 235.16 30.9773 234.986 30.9773C234.611 30.9773 234.274 31.0587 233.974 31.2216C233.679 31.3807 233.446 31.6023 233.276 31.8864C233.105 32.1705 233.02 32.4981 233.02 32.8693V38H230.963ZM248.173 31.5795L246.298 31.7841C246.245 31.5947 246.152 31.4167 246.02 31.25C245.891 31.0833 245.717 30.9489 245.497 30.8466C245.277 30.7443 245.009 30.6932 244.69 30.6932C244.262 30.6932 243.902 30.786 243.611 30.9716C243.323 31.1572 243.181 31.3977 243.185 31.6932C243.181 31.947 243.274 32.1534 243.463 32.3125C243.656 32.4716 243.974 32.6023 244.418 32.7045L245.906 33.0227C246.732 33.2008 247.346 33.483 247.747 33.8693C248.152 34.2557 248.357 34.7614 248.361 35.3864C248.357 35.9356 248.196 36.4205 247.878 36.8409C247.563 37.2576 247.126 37.5833 246.565 37.8182C246.005 38.053 245.361 38.1705 244.634 38.1705C243.565 38.1705 242.705 37.947 242.054 37.5C241.402 37.0492 241.014 36.4223 240.889 35.6193L242.895 35.4261C242.986 35.8201 243.179 36.1174 243.474 36.3182C243.77 36.5189 244.154 36.6193 244.628 36.6193C245.116 36.6193 245.509 36.5189 245.804 36.3182C246.103 36.1174 246.253 35.8693 246.253 35.5739C246.253 35.3239 246.156 35.1174 245.963 34.9545C245.774 34.7917 245.478 34.6667 245.077 34.5795L243.588 34.267C242.751 34.0928 242.132 33.7992 241.73 33.3864C241.329 32.9697 241.13 32.4432 241.134 31.8068C241.13 31.2689 241.276 30.803 241.571 30.4091C241.87 30.0114 242.285 29.7045 242.815 29.4886C243.349 29.2689 243.965 29.1591 244.662 29.1591C245.685 29.1591 246.49 29.3769 247.077 29.8125C247.668 30.2481 248.033 30.8371 248.173 31.5795ZM253.92 38.1705C253.045 38.1705 252.29 37.9886 251.653 37.625C251.021 37.2576 250.534 36.7386 250.193 36.0682C249.852 35.3939 249.682 34.6004 249.682 33.6875C249.682 32.7898 249.852 32.0019 250.193 31.3239C250.538 30.642 251.019 30.1117 251.636 29.733C252.254 29.3504 252.979 29.1591 253.812 29.1591C254.35 29.1591 254.858 29.2462 255.335 29.4205C255.816 29.5909 256.241 29.8561 256.608 30.2159C256.979 30.5758 257.271 31.0341 257.483 31.5909C257.695 32.1439 257.801 32.803 257.801 33.5682V34.1989H250.648V32.8125H255.83C255.826 32.4186 255.741 32.0682 255.574 31.7614C255.407 31.4508 255.174 31.2064 254.875 31.0284C254.58 30.8504 254.235 30.7614 253.841 30.7614C253.42 30.7614 253.051 30.8636 252.733 31.0682C252.415 31.2689 252.167 31.5341 251.989 31.8636C251.814 32.1894 251.725 32.5473 251.722 32.9375V34.1477C251.722 34.6553 251.814 35.0909 252 35.4545C252.186 35.8144 252.445 36.0909 252.778 36.2841C253.112 36.4735 253.502 36.5682 253.949 36.5682C254.248 36.5682 254.519 36.5265 254.761 36.4432C255.004 36.3561 255.214 36.2292 255.392 36.0625C255.57 35.8958 255.705 35.6894 255.795 35.4432L257.716 35.6591C257.595 36.1667 257.364 36.6098 257.023 36.9886C256.686 37.3636 256.254 37.6553 255.727 37.8636C255.201 38.0682 254.598 38.1705 253.92 38.1705ZM266.439 31.5795L264.564 31.7841C264.511 31.5947 264.418 31.4167 264.286 31.25C264.157 31.0833 263.982 30.9489 263.763 30.8466C263.543 30.7443 263.274 30.6932 262.956 30.6932C262.528 30.6932 262.168 30.786 261.876 30.9716C261.589 31.1572 261.446 31.3977 261.45 31.6932C261.446 31.947 261.539 32.1534 261.729 32.3125C261.922 32.4716 262.24 32.6023 262.683 32.7045L264.172 33.0227C264.998 33.2008 265.611 33.483 266.013 33.8693C266.418 34.2557 266.623 34.7614 266.626 35.3864C266.623 35.9356 266.462 36.4205 266.143 36.8409C265.829 37.2576 265.392 37.5833 264.831 37.8182C264.27 38.053 263.626 38.1705 262.899 38.1705C261.831 38.1705 260.971 37.947 260.32 37.5C259.668 37.0492 259.28 36.4223 259.155 35.6193L261.161 35.4261C261.251 35.8201 261.445 36.1174 261.74 36.3182C262.036 36.5189 262.42 36.6193 262.893 36.6193C263.382 36.6193 263.774 36.5189 264.07 36.3182C264.369 36.1174 264.518 35.8693 264.518 35.5739C264.518 35.3239 264.422 35.1174 264.229 34.9545C264.039 34.7917 263.744 34.6667 263.342 34.5795L261.854 34.267C261.017 34.0928 260.397 33.7992 259.996 33.3864C259.594 32.9697 259.395 32.4432 259.399 31.8068C259.395 31.2689 259.541 30.803 259.837 30.4091C260.136 30.0114 260.551 29.7045 261.081 29.4886C261.615 29.2689 262.231 29.1591 262.928 29.1591C263.95 29.1591 264.755 29.3769 265.342 29.8125C265.933 30.2481 266.299 30.8371 266.439 31.5795ZM268.322 38V29.2727H270.379V38H268.322ZM269.357 28.0341C269.031 28.0341 268.75 27.9261 268.516 27.7102C268.281 27.4905 268.163 27.2273 268.163 26.9205C268.163 26.6098 268.281 26.3466 268.516 26.1307C268.75 25.911 269.031 25.8011 269.357 25.8011C269.686 25.8011 269.966 25.911 270.197 26.1307C270.432 26.3466 270.55 26.6098 270.55 26.9205C270.55 27.2273 270.432 27.4905 270.197 27.7102C269.966 27.9261 269.686 28.0341 269.357 28.0341ZM276.301 38.1705C275.449 38.1705 274.71 37.983 274.085 37.608C273.46 37.233 272.975 36.7083 272.631 36.0341C272.29 35.3598 272.119 34.572 272.119 33.6705C272.119 32.7689 272.29 31.9792 272.631 31.3011C272.975 30.6231 273.46 30.0966 274.085 29.7216C274.71 29.3466 275.449 29.1591 276.301 29.1591C277.153 29.1591 277.892 29.3466 278.517 29.7216C279.142 30.0966 279.625 30.6231 279.966 31.3011C280.311 31.9792 280.483 32.7689 280.483 33.6705C280.483 34.572 280.311 35.3598 279.966 36.0341C279.625 36.7083 279.142 37.233 278.517 37.608C277.892 37.983 277.153 38.1705 276.301 38.1705ZM276.312 36.5227C276.775 36.5227 277.161 36.3958 277.472 36.142C277.782 35.8845 278.013 35.5398 278.165 35.108C278.32 34.6761 278.398 34.1951 278.398 33.6648C278.398 33.1307 278.32 32.6477 278.165 32.2159C278.013 31.7803 277.782 31.4337 277.472 31.1761C277.161 30.9186 276.775 30.7898 276.312 30.7898C275.839 30.7898 275.445 30.9186 275.131 31.1761C274.82 31.4337 274.587 31.7803 274.432 32.2159C274.28 32.6477 274.205 33.1307 274.205 33.6648C274.205 34.1951 274.28 34.6761 274.432 35.108C274.587 35.5398 274.82 35.8845 275.131 36.142C275.445 36.3958 275.839 36.5227 276.312 36.5227ZM275.511 28.125L276.784 25.5284H278.795L277.051 28.125H275.511ZM284.286 32.8864V38H282.229V29.2727H284.195V30.7557H284.297C284.498 30.267 284.818 29.8788 285.257 29.5909C285.7 29.303 286.248 29.1591 286.899 29.1591C287.501 29.1591 288.026 29.2879 288.473 29.5455C288.924 29.803 289.272 30.1761 289.518 30.6648C289.768 31.1534 289.892 31.7462 289.888 32.4432V38H287.831V32.7614C287.831 32.178 287.679 31.7216 287.376 31.392C287.077 31.0625 286.662 30.8977 286.132 30.8977C285.772 30.8977 285.452 30.9773 285.172 31.1364C284.895 31.2917 284.678 31.517 284.518 31.8125C284.363 32.108 284.286 32.4659 284.286 32.8864Z" fill="#FAFAFA"/>
</svg>
