<svg width="480" height="64" viewBox="0 0 480 64" fill="none" xmlns="http://www.w3.org/2000/svg">
<path d="M0.5 8C0.5 3.85786 3.85786 0.5 8 0.5H472C476.142 0.5 479.5 3.85786 479.5 8V56C479.5 60.1421 476.142 63.5 472 63.5H7.99999C3.85786 63.5 0.5 60.1421 0.5 56V8Z" stroke="#E4E4E7"/>
<g clip-path="url(#clip0_6010_725)">
<path d="M153.787 32.225C153.787 31.5667 153.729 30.9417 153.629 30.3333H144.212V34.0917H149.604C149.362 35.325 148.654 36.3667 147.604 37.075V39.575H150.821C152.704 37.8333 153.787 35.2667 153.787 32.225Z" fill="#4285F4"/>
<path d="M144.212 42C146.912 42 149.171 41.1 150.821 39.575L147.604 37.075C146.704 37.675 145.562 38.0417 144.212 38.0417C141.604 38.0417 139.396 36.2833 138.604 33.9083H135.287V36.4833C136.929 39.75 140.304 42 144.212 42Z" fill="#01B574"/>
<path d="M138.604 33.9083C138.396 33.3083 138.287 32.6667 138.287 32C138.287 31.3333 138.404 30.6917 138.604 30.0917V27.5167H135.287C134.604 28.8667 134.212 30.3833 134.212 32C134.212 33.6167 134.604 35.1333 135.287 36.4833L138.604 33.9083Z" fill="#FBBC05"/>
<path d="M144.212 25.9583C145.687 25.9583 147.004 26.4667 148.046 27.4583L150.896 24.6083C149.171 22.9917 146.912 22 144.212 22C140.304 22 136.929 24.25 135.287 27.5167L138.604 30.0917C139.396 27.7167 141.604 25.9583 144.212 25.9583Z" fill="#EA4335"/>
</g>
<path d="M165.256 26.3636V38H163.148V26.3636H165.256ZM169.504 32.8864V38H167.447V29.2727H169.413V30.7557H169.516C169.716 30.267 170.036 29.8788 170.476 29.5909C170.919 29.303 171.466 29.1591 172.118 29.1591C172.72 29.1591 173.245 29.2879 173.692 29.5455C174.143 29.803 174.491 30.1761 174.737 30.6648C174.987 31.1534 175.11 31.7462 175.107 32.4432V38H173.05V32.7614C173.05 32.178 172.898 31.7216 172.595 31.392C172.296 31.0625 171.881 30.8977 171.351 30.8977C170.991 30.8977 170.671 30.9773 170.391 31.1364C170.114 31.2917 169.896 31.517 169.737 31.8125C169.582 32.108 169.504 32.4659 169.504 32.8864ZM181.004 38.1705C180.133 38.1705 179.385 37.9792 178.76 37.5966C178.139 37.214 177.66 36.6856 177.322 36.0114C176.989 35.3333 176.822 34.553 176.822 33.6705C176.822 32.7841 176.993 32.0019 177.334 31.3239C177.675 30.642 178.156 30.1117 178.777 29.733C179.402 29.3504 180.141 29.1591 180.993 29.1591C181.701 29.1591 182.328 29.2898 182.874 29.5511C183.423 29.8087 183.86 30.1742 184.186 30.6477C184.512 31.1174 184.697 31.6667 184.743 32.2955H182.777C182.697 31.875 182.508 31.5246 182.209 31.2443C181.913 30.9602 181.518 30.8182 181.021 30.8182C180.601 30.8182 180.232 30.9318 179.913 31.1591C179.595 31.3826 179.347 31.7045 179.169 32.125C178.995 32.5455 178.908 33.0492 178.908 33.6364C178.908 34.2311 178.995 34.7424 179.169 35.1705C179.343 35.5947 179.588 35.9223 179.902 36.1534C180.22 36.3807 180.593 36.4943 181.021 36.4943C181.324 36.4943 181.595 36.4375 181.834 36.3239C182.076 36.2064 182.279 36.0379 182.442 35.8182C182.605 35.5985 182.716 35.3314 182.777 35.017H184.743C184.694 35.6345 184.512 36.1818 184.197 36.6591C183.883 37.1326 183.455 37.5038 182.913 37.7727C182.372 38.0379 181.735 38.1705 181.004 38.1705ZM186.432 38V29.2727H188.489V38H186.432ZM187.466 28.0341C187.14 28.0341 186.86 27.9261 186.625 27.7102C186.39 27.4905 186.273 27.2273 186.273 26.9205C186.273 26.6098 186.39 26.3466 186.625 26.1307C186.86 25.911 187.14 25.8011 187.466 25.8011C187.795 25.8011 188.076 25.911 188.307 26.1307C188.542 26.3466 188.659 26.6098 188.659 26.9205C188.659 27.2273 188.542 27.4905 188.307 27.7102C188.076 27.9261 187.795 28.0341 187.466 28.0341ZM193.115 38.1761C192.562 38.1761 192.064 38.0777 191.621 37.8807C191.181 37.6799 190.833 37.3845 190.575 36.9943C190.321 36.6042 190.195 36.1231 190.195 35.5511C190.195 35.0587 190.286 34.6515 190.467 34.3295C190.649 34.0076 190.897 33.75 191.212 33.5568C191.526 33.3636 191.88 33.2178 192.274 33.1193C192.672 33.017 193.083 32.9432 193.507 32.8977C194.018 32.8447 194.433 32.7973 194.751 32.7557C195.07 32.7102 195.301 32.642 195.445 32.5511C195.592 32.4564 195.666 32.3106 195.666 32.1136V32.0795C195.666 31.6515 195.539 31.3201 195.286 31.0852C195.032 30.8504 194.666 30.733 194.189 30.733C193.685 30.733 193.286 30.8428 192.99 31.0625C192.698 31.2822 192.501 31.5417 192.399 31.8409L190.479 31.5682C190.63 31.0379 190.88 30.5947 191.229 30.2386C191.577 29.8788 192.003 29.6098 192.507 29.4318C193.011 29.25 193.568 29.1591 194.178 29.1591C194.598 29.1591 195.017 29.2083 195.433 29.3068C195.85 29.4053 196.231 29.5682 196.575 29.7955C196.92 30.0189 197.196 30.3239 197.405 30.7102C197.617 31.0966 197.723 31.5795 197.723 32.1591V38H195.746V36.8011H195.678C195.553 37.0436 195.376 37.2708 195.149 37.483C194.926 37.6913 194.643 37.8598 194.303 37.9886C193.965 38.1136 193.57 38.1761 193.115 38.1761ZM193.649 36.6648C194.062 36.6648 194.42 36.5833 194.723 36.4205C195.026 36.2538 195.259 36.0341 195.422 35.7614C195.589 35.4886 195.672 35.1913 195.672 34.8693V33.8409C195.607 33.8939 195.498 33.9432 195.342 33.9886C195.191 34.0341 195.02 34.0739 194.831 34.108C194.642 34.142 194.454 34.1723 194.268 34.1989C194.083 34.2254 193.922 34.2481 193.786 34.267C193.479 34.3087 193.204 34.3769 192.962 34.4716C192.719 34.5663 192.528 34.6989 192.388 34.8693C192.248 35.036 192.178 35.2519 192.178 35.517C192.178 35.8958 192.316 36.1818 192.592 36.375C192.869 36.5682 193.221 36.6648 193.649 36.6648ZM210.658 31.5795L208.783 31.7841C208.73 31.5947 208.637 31.4167 208.504 31.25C208.375 31.0833 208.201 30.9489 207.982 30.8466C207.762 30.7443 207.493 30.6932 207.175 30.6932C206.747 30.6932 206.387 30.786 206.095 30.9716C205.807 31.1572 205.665 31.3977 205.669 31.6932C205.665 31.947 205.758 32.1534 205.947 32.3125C206.141 32.4716 206.459 32.6023 206.902 32.7045L208.391 33.0227C209.216 33.2008 209.83 33.483 210.232 33.8693C210.637 34.2557 210.841 34.7614 210.845 35.3864C210.841 35.9356 210.68 36.4205 210.362 36.8409C210.048 37.2576 209.61 37.5833 209.05 37.8182C208.489 38.053 207.845 38.1705 207.118 38.1705C206.05 38.1705 205.19 37.947 204.538 37.5C203.887 37.0492 203.499 36.4223 203.374 35.6193L205.379 35.4261C205.47 35.8201 205.663 36.1174 205.959 36.3182C206.254 36.5189 206.639 36.6193 207.112 36.6193C207.601 36.6193 207.993 36.5189 208.288 36.3182C208.588 36.1174 208.737 35.8693 208.737 35.5739C208.737 35.3239 208.641 35.1174 208.447 34.9545C208.258 34.7917 207.963 34.6667 207.561 34.5795L206.072 34.267C205.235 34.0928 204.616 33.7992 204.214 33.3864C203.813 32.9697 203.614 32.4432 203.618 31.8068C203.614 31.2689 203.76 30.803 204.055 30.4091C204.355 30.0114 204.769 29.7045 205.3 29.4886C205.834 29.2689 206.449 29.1591 207.146 29.1591C208.169 29.1591 208.974 29.3769 209.561 29.8125C210.152 30.2481 210.518 30.8371 210.658 31.5795ZM216.405 38.1705C215.53 38.1705 214.774 37.9886 214.138 37.625C213.505 37.2576 213.018 36.7386 212.678 36.0682C212.337 35.3939 212.166 34.6004 212.166 33.6875C212.166 32.7898 212.337 32.0019 212.678 31.3239C213.022 30.642 213.503 30.1117 214.121 29.733C214.738 29.3504 215.464 29.1591 216.297 29.1591C216.835 29.1591 217.342 29.2462 217.82 29.4205C218.301 29.5909 218.725 29.8561 219.092 30.2159C219.464 30.5758 219.755 31.0341 219.967 31.5909C220.179 32.1439 220.286 32.803 220.286 33.5682V34.1989H213.132V32.8125H218.314C218.31 32.4186 218.225 32.0682 218.058 31.7614C217.892 31.4508 217.659 31.2064 217.359 31.0284C217.064 30.8504 216.719 30.7614 216.325 30.7614C215.905 30.7614 215.536 30.8636 215.217 31.0682C214.899 31.2689 214.651 31.5341 214.473 31.8636C214.299 32.1894 214.21 32.5473 214.206 32.9375V34.1477C214.206 34.6553 214.299 35.0909 214.484 35.4545C214.67 35.8144 214.929 36.0909 215.263 36.2841C215.596 36.4735 215.986 36.5682 216.433 36.5682C216.732 36.5682 217.003 36.5265 217.246 36.4432C217.488 36.3561 217.698 36.2292 217.876 36.0625C218.054 35.8958 218.189 35.6894 218.28 35.4432L220.2 35.6591C220.079 36.1667 219.848 36.6098 219.507 36.9886C219.17 37.3636 218.738 37.6553 218.212 37.8636C217.685 38.0682 217.083 38.1705 216.405 38.1705ZM228.923 31.5795L227.048 31.7841C226.995 31.5947 226.902 31.4167 226.77 31.25C226.641 31.0833 226.467 30.9489 226.247 30.8466C226.027 30.7443 225.759 30.6932 225.44 30.6932C225.012 30.6932 224.652 30.786 224.361 30.9716C224.073 31.1572 223.931 31.3977 223.935 31.6932C223.931 31.947 224.024 32.1534 224.213 32.3125C224.406 32.4716 224.724 32.6023 225.168 32.7045L226.656 33.0227C227.482 33.2008 228.096 33.483 228.497 33.8693C228.902 34.2557 229.107 34.7614 229.111 35.3864C229.107 35.9356 228.946 36.4205 228.628 36.8409C228.313 37.2576 227.876 37.5833 227.315 37.8182C226.755 38.053 226.111 38.1705 225.384 38.1705C224.315 38.1705 223.455 37.947 222.804 37.5C222.152 37.0492 221.764 36.4223 221.639 35.6193L223.645 35.4261C223.736 35.8201 223.929 36.1174 224.224 36.3182C224.52 36.5189 224.904 36.6193 225.378 36.6193C225.866 36.6193 226.259 36.5189 226.554 36.3182C226.853 36.1174 227.003 35.8693 227.003 35.5739C227.003 35.3239 226.906 35.1174 226.713 34.9545C226.524 34.7917 226.228 34.6667 225.827 34.5795L224.338 34.267C223.501 34.0928 222.882 33.7992 222.48 33.3864C222.079 32.9697 221.88 32.4432 221.884 31.8068C221.88 31.2689 222.026 30.803 222.321 30.4091C222.62 30.0114 223.035 29.7045 223.565 29.4886C224.099 29.2689 224.715 29.1591 225.412 29.1591C226.435 29.1591 227.24 29.3769 227.827 29.8125C228.418 30.2481 228.783 30.8371 228.923 31.5795ZM230.807 38V29.2727H232.864V38H230.807ZM231.841 28.0341C231.515 28.0341 231.235 27.9261 231 27.7102C230.765 27.4905 230.648 27.2273 230.648 26.9205C230.648 26.6098 230.765 26.3466 231 26.1307C231.235 25.911 231.515 25.8011 231.841 25.8011C232.17 25.8011 232.451 25.911 232.682 26.1307C232.917 26.3466 233.034 26.6098 233.034 26.9205C233.034 27.2273 232.917 27.4905 232.682 27.7102C232.451 27.9261 232.17 28.0341 231.841 28.0341ZM238.786 38.1705C237.933 38.1705 237.195 37.983 236.57 37.608C235.945 37.233 235.46 36.7083 235.115 36.0341C234.774 35.3598 234.604 34.572 234.604 33.6705C234.604 32.7689 234.774 31.9792 235.115 31.3011C235.46 30.6231 235.945 30.0966 236.57 29.7216C237.195 29.3466 237.933 29.1591 238.786 29.1591C239.638 29.1591 240.376 29.3466 241.001 29.7216C241.626 30.0966 242.109 30.6231 242.45 31.3011C242.795 31.9792 242.967 32.7689 242.967 33.6705C242.967 34.572 242.795 35.3598 242.45 36.0341C242.109 36.7083 241.626 37.233 241.001 37.608C240.376 37.983 239.638 38.1705 238.786 38.1705ZM238.797 36.5227C239.259 36.5227 239.645 36.3958 239.956 36.142C240.267 35.8845 240.498 35.5398 240.649 35.108C240.804 34.6761 240.882 34.1951 240.882 33.6648C240.882 33.1307 240.804 32.6477 240.649 32.2159C240.498 31.7803 240.267 31.4337 239.956 31.1761C239.645 30.9186 239.259 30.7898 238.797 30.7898C238.323 30.7898 237.929 30.9186 237.615 31.1761C237.304 31.4337 237.071 31.7803 236.916 32.2159C236.765 32.6477 236.689 33.1307 236.689 33.6648C236.689 34.1951 236.765 34.6761 236.916 35.108C237.071 35.5398 237.304 35.8845 237.615 36.142C237.929 36.3958 238.323 36.5227 238.797 36.5227ZM237.996 28.125L239.268 25.5284H241.28L239.536 28.125H237.996ZM246.77 32.8864V38H244.713V29.2727H246.679V30.7557H246.781C246.982 30.267 247.302 29.8788 247.741 29.5909C248.185 29.303 248.732 29.1591 249.384 29.1591C249.986 29.1591 250.51 29.2879 250.957 29.5455C251.408 29.803 251.757 30.1761 252.003 30.6648C252.253 31.1534 252.376 31.7462 252.372 32.4432V38H250.315V32.7614C250.315 32.178 250.164 31.7216 249.861 31.392C249.562 31.0625 249.147 30.8977 248.616 30.8977C248.257 30.8977 247.937 30.9773 247.656 31.1364C247.38 31.2917 247.162 31.517 247.003 31.8125C246.848 32.108 246.77 32.4659 246.77 32.8864ZM262.239 38.1705C261.367 38.1705 260.619 37.9792 259.994 37.5966C259.373 37.214 258.894 36.6856 258.557 36.0114C258.223 35.3333 258.057 34.553 258.057 33.6705C258.057 32.7841 258.227 32.0019 258.568 31.3239C258.909 30.642 259.39 30.1117 260.011 29.733C260.636 29.3504 261.375 29.1591 262.227 29.1591C262.936 29.1591 263.563 29.2898 264.108 29.5511C264.657 29.8087 265.095 30.1742 265.42 30.6477C265.746 31.1174 265.932 31.6667 265.977 32.2955H264.011C263.932 31.875 263.742 31.5246 263.443 31.2443C263.148 30.9602 262.752 30.8182 262.256 30.8182C261.835 30.8182 261.466 30.9318 261.148 31.1591C260.83 31.3826 260.581 31.7045 260.403 32.125C260.229 32.5455 260.142 33.0492 260.142 33.6364C260.142 34.2311 260.229 34.7424 260.403 35.1705C260.578 35.5947 260.822 35.9223 261.136 36.1534C261.455 36.3807 261.828 36.4943 262.256 36.4943C262.559 36.4943 262.83 36.4375 263.068 36.3239C263.311 36.2064 263.513 36.0379 263.676 35.8182C263.839 35.5985 263.951 35.3314 264.011 35.017H265.977C265.928 35.6345 265.746 36.1818 265.432 36.6591C265.117 37.1326 264.689 37.5038 264.148 37.7727C263.606 38.0379 262.97 38.1705 262.239 38.1705ZM271.473 38.1705C270.621 38.1705 269.882 37.983 269.257 37.608C268.632 37.233 268.147 36.7083 267.803 36.0341C267.462 35.3598 267.291 34.572 267.291 33.6705C267.291 32.7689 267.462 31.9792 267.803 31.3011C268.147 30.6231 268.632 30.0966 269.257 29.7216C269.882 29.3466 270.621 29.1591 271.473 29.1591C272.325 29.1591 273.064 29.3466 273.689 29.7216C274.314 30.0966 274.797 30.6231 275.138 31.3011C275.482 31.9792 275.655 32.7689 275.655 33.6705C275.655 34.572 275.482 35.3598 275.138 36.0341C274.797 36.7083 274.314 37.233 273.689 37.608C273.064 37.983 272.325 38.1705 271.473 38.1705ZM271.484 36.5227C271.946 36.5227 272.333 36.3958 272.643 36.142C272.954 35.8845 273.185 35.5398 273.337 35.108C273.492 34.6761 273.57 34.1951 273.57 33.6648C273.57 33.1307 273.492 32.6477 273.337 32.2159C273.185 31.7803 272.954 31.4337 272.643 31.1761C272.333 30.9186 271.946 30.7898 271.484 30.7898C271.011 30.7898 270.617 30.9186 270.303 31.1761C269.992 31.4337 269.759 31.7803 269.604 32.2159C269.452 32.6477 269.376 33.1307 269.376 33.6648C269.376 34.1951 269.452 34.6761 269.604 35.108C269.759 35.5398 269.992 35.8845 270.303 36.142C270.617 36.3958 271.011 36.5227 271.484 36.5227ZM279.457 32.8864V38H277.401V29.2727H279.366V30.7557H279.469C279.67 30.267 279.99 29.8788 280.429 29.5909C280.872 29.303 281.42 29.1591 282.071 29.1591C282.673 29.1591 283.198 29.2879 283.645 29.5455C284.096 29.803 284.444 30.1761 284.69 30.6648C284.94 31.1534 285.063 31.7462 285.06 32.4432V38H283.003V32.7614C283.003 32.178 282.851 31.7216 282.548 31.392C282.249 31.0625 281.834 30.8977 281.304 30.8977C280.944 30.8977 280.624 30.9773 280.344 31.1364C280.067 31.2917 279.849 31.517 279.69 31.8125C279.535 32.108 279.457 32.4659 279.457 32.8864ZM299.006 30.0795C298.911 29.7727 298.78 29.4981 298.614 29.2557C298.451 29.0095 298.254 28.7992 298.023 28.625C297.795 28.4508 297.534 28.3201 297.239 28.233C296.943 28.142 296.621 28.0966 296.273 28.0966C295.648 28.0966 295.091 28.2538 294.602 28.5682C294.114 28.8826 293.729 29.3447 293.449 29.9545C293.172 30.5606 293.034 31.2992 293.034 32.1705C293.034 33.0492 293.172 33.7936 293.449 34.4034C293.725 35.0133 294.11 35.4773 294.602 35.7955C295.095 36.1098 295.667 36.267 296.318 36.267C296.909 36.267 297.42 36.1534 297.852 35.9261C298.288 35.6989 298.623 35.3769 298.858 34.9602C299.093 34.5398 299.21 34.0473 299.21 33.483L299.688 33.5568H296.528V31.9091H301.25V33.3068C301.25 34.303 301.038 35.1648 300.614 35.892C300.189 36.6193 299.606 37.1799 298.864 37.5739C298.121 37.964 297.269 38.1591 296.307 38.1591C295.235 38.1591 294.294 37.9186 293.483 37.4375C292.676 36.9527 292.045 36.2652 291.591 35.375C291.14 34.4811 290.915 33.4205 290.915 32.1932C290.915 31.2538 291.047 30.4148 291.312 29.6761C291.581 28.9375 291.956 28.3106 292.438 27.7955C292.919 27.2765 293.483 26.8826 294.131 26.6136C294.778 26.3409 295.483 26.2045 296.244 26.2045C296.888 26.2045 297.489 26.2992 298.045 26.4886C298.602 26.6742 299.097 26.9394 299.528 27.2841C299.964 27.6288 300.322 28.0379 300.602 28.5114C300.883 28.9848 301.066 29.5076 301.153 30.0795H299.006ZM307.004 38.1705C306.152 38.1705 305.413 37.983 304.788 37.608C304.163 37.233 303.679 36.7083 303.334 36.0341C302.993 35.3598 302.822 34.572 302.822 33.6705C302.822 32.7689 302.993 31.9792 303.334 31.3011C303.679 30.6231 304.163 30.0966 304.788 29.7216C305.413 29.3466 306.152 29.1591 307.004 29.1591C307.857 29.1591 308.595 29.3466 309.22 29.7216C309.845 30.0966 310.328 30.6231 310.669 31.3011C311.014 31.9792 311.186 32.7689 311.186 33.6705C311.186 34.572 311.014 35.3598 310.669 36.0341C310.328 36.7083 309.845 37.233 309.22 37.608C308.595 37.983 307.857 38.1705 307.004 38.1705ZM307.016 36.5227C307.478 36.5227 307.864 36.3958 308.175 36.142C308.485 35.8845 308.716 35.5398 308.868 35.108C309.023 34.6761 309.101 34.1951 309.101 33.6648C309.101 33.1307 309.023 32.6477 308.868 32.2159C308.716 31.7803 308.485 31.4337 308.175 31.1761C307.864 30.9186 307.478 30.7898 307.016 30.7898C306.542 30.7898 306.148 30.9186 305.834 31.1761C305.523 31.4337 305.29 31.7803 305.135 32.2159C304.983 32.6477 304.908 33.1307 304.908 33.6648C304.908 34.1951 304.983 34.6761 305.135 35.108C305.29 35.5398 305.523 35.8845 305.834 36.142C306.148 36.3958 306.542 36.5227 307.016 36.5227ZM316.739 38.1705C315.886 38.1705 315.148 37.983 314.523 37.608C313.898 37.233 313.413 36.7083 313.068 36.0341C312.727 35.3598 312.557 34.572 312.557 33.6705C312.557 32.7689 312.727 31.9792 313.068 31.3011C313.413 30.6231 313.898 30.0966 314.523 29.7216C315.148 29.3466 315.886 29.1591 316.739 29.1591C317.591 29.1591 318.33 29.3466 318.955 29.7216C319.58 30.0966 320.063 30.6231 320.403 31.3011C320.748 31.9792 320.92 32.7689 320.92 33.6705C320.92 34.572 320.748 35.3598 320.403 36.0341C320.063 36.7083 319.58 37.233 318.955 37.608C318.33 37.983 317.591 38.1705 316.739 38.1705ZM316.75 36.5227C317.212 36.5227 317.598 36.3958 317.909 36.142C318.22 35.8845 318.451 35.5398 318.602 35.108C318.758 34.6761 318.835 34.1951 318.835 33.6648C318.835 33.1307 318.758 32.6477 318.602 32.2159C318.451 31.7803 318.22 31.4337 317.909 31.1761C317.598 30.9186 317.212 30.7898 316.75 30.7898C316.277 30.7898 315.883 30.9186 315.568 31.1761C315.258 31.4337 315.025 31.7803 314.869 32.2159C314.718 32.6477 314.642 33.1307 314.642 33.6648C314.642 34.1951 314.718 34.6761 314.869 35.108C315.025 35.5398 315.258 35.8845 315.568 36.142C315.883 36.3958 316.277 36.5227 316.75 36.5227ZM326.462 41.4545C325.723 41.4545 325.089 41.3542 324.558 41.1534C324.028 40.9564 323.602 40.6913 323.28 40.358C322.958 40.0246 322.734 39.6553 322.609 39.25L324.462 38.8011C324.545 38.9716 324.666 39.1402 324.825 39.3068C324.984 39.4773 325.198 39.6174 325.467 39.7273C325.74 39.8409 326.083 39.8977 326.496 39.8977C327.079 39.8977 327.562 39.7557 327.945 39.4716C328.327 39.1913 328.518 38.7292 328.518 38.0852V36.4318H328.416C328.31 36.6439 328.155 36.8617 327.95 37.0852C327.75 37.3087 327.482 37.4962 327.149 37.6477C326.82 37.7992 326.405 37.875 325.905 37.875C325.234 37.875 324.626 37.7178 324.081 37.4034C323.539 37.0852 323.107 36.6117 322.786 35.983C322.467 35.3504 322.308 34.5587 322.308 33.608C322.308 32.6496 322.467 31.8409 322.786 31.1818C323.107 30.5189 323.541 30.017 324.087 29.6761C324.632 29.3314 325.24 29.1591 325.911 29.1591C326.422 29.1591 326.842 29.2462 327.172 29.4205C327.505 29.5909 327.77 29.7973 327.967 30.0398C328.164 30.2784 328.314 30.5038 328.416 30.7159H328.53V29.2727H330.558V38.142C330.558 38.8883 330.38 39.5057 330.024 39.9943C329.668 40.483 329.181 40.8485 328.564 41.0909C327.946 41.3333 327.246 41.4545 326.462 41.4545ZM326.479 36.2614C326.914 36.2614 327.286 36.1553 327.592 35.9432C327.899 35.7311 328.132 35.4261 328.291 35.0284C328.45 34.6307 328.53 34.1534 328.53 33.5966C328.53 33.0473 328.45 32.5663 328.291 32.1534C328.136 31.7405 327.905 31.4205 327.598 31.1932C327.295 30.9621 326.922 30.8466 326.479 30.8466C326.02 30.8466 325.638 30.9659 325.331 31.2045C325.024 31.4432 324.793 31.7708 324.638 32.1875C324.482 32.6004 324.405 33.0701 324.405 33.5966C324.405 34.1307 324.482 34.5985 324.638 35C324.797 35.3977 325.03 35.7083 325.337 35.9318C325.647 36.1515 326.028 36.2614 326.479 36.2614ZM334.723 26.3636V38H332.666V26.3636H334.723ZM340.702 38.1705C339.827 38.1705 339.071 37.9886 338.435 37.625C337.802 37.2576 337.315 36.7386 336.974 36.0682C336.634 35.3939 336.463 34.6004 336.463 33.6875C336.463 32.7898 336.634 32.0019 336.974 31.3239C337.319 30.642 337.8 30.1117 338.418 29.733C339.035 29.3504 339.76 29.1591 340.594 29.1591C341.132 29.1591 341.639 29.2462 342.116 29.4205C342.598 29.5909 343.022 29.8561 343.389 30.2159C343.76 30.5758 344.052 31.0341 344.264 31.5909C344.476 32.1439 344.582 32.803 344.582 33.5682V34.1989H337.429V32.8125H342.611C342.607 32.4186 342.522 32.0682 342.355 31.7614C342.188 31.4508 341.955 31.2064 341.656 31.0284C341.361 30.8504 341.016 30.7614 340.622 30.7614C340.202 30.7614 339.832 30.8636 339.514 31.0682C339.196 31.2689 338.948 31.5341 338.77 31.8636C338.596 32.1894 338.507 32.5473 338.503 32.9375V34.1477C338.503 34.6553 338.596 35.0909 338.781 35.4545C338.967 35.8144 339.226 36.0909 339.56 36.2841C339.893 36.4735 340.283 36.5682 340.73 36.5682C341.029 36.5682 341.3 36.5265 341.543 36.4432C341.785 36.3561 341.995 36.2292 342.173 36.0625C342.351 35.8958 342.486 35.6894 342.577 35.4432L344.497 35.6591C344.376 36.1667 344.145 36.6098 343.804 36.9886C343.467 37.3636 343.035 37.6553 342.509 37.8636C341.982 38.0682 341.38 38.1705 340.702 38.1705Z" fill="#09090B"/>
<defs>
<clipPath id="clip0_6010_725">
<rect width="20" height="20" fill="white" transform="translate(134 22)"/>
</clipPath>
</defs>
</svg>
